M48
;DRILL file {KiCad 4.0.6} date Fri Jul  7 23:07:14 2017
;FORMAT={-:-/ absolute / inch / decimal}
FMAT,2
INCH,TZ
T1C0.013
T2C0.030
T3C0.039
T4C0.040
T5C0.042
T6C0.120
%
G90
G05
M72
T1
X4.56Y-4.665
X4.605Y-3.825
X4.615Y-4.55
X4.665Y-3.885
X4.755Y-4.12
X4.79Y-4.428
X4.8Y-4.62
X4.914Y-4.452
X4.92Y-4.415
X5.04Y-4.49
X5.05Y-4.12
X5.055Y-3.945
X5.125Y-4.1967
X5.1385Y-4.0815
X5.1716Y-4.2892
X5.2105Y-4.4431
X5.215Y-3.945
X5.224Y-4.147
X5.255Y-4.115
X5.26Y-3.905
X5.27Y-4.3061
X5.37Y-4.234
X5.39Y-4.52
X5.4051Y-4.1855
X5.4332Y-4.21
X5.4598Y-4.0709
X5.494Y-4.235
X5.555Y-4.335
X5.5565Y-4.5684
X5.56Y-4.285
X5.56Y-4.37
X5.5866Y-4.0069
X5.6364Y-4.5274
X5.6848Y-4.4634
X5.7056Y-4.4903
X5.775Y-4.045
X5.8446Y-4.185
X5.8488Y-4.515
X5.8552Y-4.2849
X5.885Y-4.5149
X5.8896Y-4.1395
X5.895Y-4.4824
X6.045Y-4.405
X6.115Y-4.35
X6.128Y-4.196
X6.1357Y-4.2407
T3
X5.976Y-3.81
X6.076Y-3.81
T4
X5.48Y-4.455
X5.48Y-4.555
X5.48Y-4.655
T6
X4.4Y-3.825
X4.4Y-4.625
X6.3Y-3.825
X6.3Y-4.625
T2
X5.6715Y-4.5535G85X5.6715Y-4.5535
G05
X5.8684Y-4.5535G85X5.8684Y-4.5535
G05
T5
X5.6322Y-4.6598G85X5.6322Y-4.6598
G05
X5.9078Y-4.6598G85X5.9078Y-4.6598
G05
T0
M30
