G04 #@! TF.FileFunction,Copper,L1,Top,Signal*
%FSLAX46Y46*%
G04 Gerber Fmt 4.6, Leading zero omitted, Abs format (unit mm)*
G04 Created by KiCad (PCBNEW 4.0.6) date Fri Jul  7 23:07:04 2017*
%MOMM*%
%LPD*%
G01*
G04 APERTURE LIST*
%ADD10C,0.090000*%
%ADD11R,3.200400X1.206500*%
%ADD12R,5.299964X1.700022*%
%ADD13C,4.318000*%
%ADD14R,1.200000X0.750000*%
%ADD15R,2.032000X1.727200*%
%ADD16O,2.032000X1.727200*%
%ADD17R,0.400000X1.350000*%
%ADD18O,1.250000X0.950000*%
%ADD19O,1.422400X1.550000*%
%ADD20R,1.200000X0.900000*%
%ADD21R,2.180000X1.600000*%
%ADD22R,0.797560X0.797560*%
%ADD23R,1.206500X3.200400*%
%ADD24R,1.700022X5.299964*%
%ADD25R,1.700000X1.700000*%
%ADD26O,1.700000X1.700000*%
%ADD27R,0.500000X0.900000*%
%ADD28C,0.685800*%
%ADD29C,0.228600*%
%ADD30C,0.381000*%
%ADD31C,0.254000*%
G04 APERTURE END LIST*
D10*
D11*
X153342340Y-110456980D03*
X153342340Y-108456984D03*
X153342340Y-106456988D03*
X153342340Y-104456992D03*
D12*
X159512000Y-113157000D03*
X159512000Y-101756972D03*
D13*
X111760000Y-117475000D03*
X111760000Y-97155000D03*
X160020000Y-97155000D03*
D14*
X119634000Y-118491000D03*
X117734000Y-118491000D03*
X119629000Y-116967000D03*
X117729000Y-116967000D03*
X121920000Y-97155000D03*
X120020000Y-97155000D03*
X152654000Y-117475000D03*
X154554000Y-117475000D03*
X152654000Y-115951000D03*
X154554000Y-115951000D03*
D15*
X139192000Y-113157000D03*
D16*
X139192000Y-115697000D03*
X139192000Y-118237000D03*
D17*
X145257100Y-115658460D03*
X145907100Y-115658460D03*
X146557100Y-115658460D03*
X147207100Y-115658460D03*
X147857100Y-115658460D03*
D18*
X144057100Y-115658460D03*
X149057100Y-115658460D03*
D19*
X143057100Y-118358460D03*
X150057100Y-118358460D03*
D20*
X128184000Y-107569000D03*
X125984000Y-107569000D03*
X146474000Y-107823000D03*
X148674000Y-107823000D03*
X129880000Y-107569000D03*
X132080000Y-107569000D03*
X144610000Y-107823000D03*
X142410000Y-107823000D03*
X142410000Y-112395000D03*
X144610000Y-112395000D03*
X122047000Y-98679000D03*
X119847000Y-98679000D03*
X144526000Y-109347000D03*
X142326000Y-109347000D03*
X144546500Y-110871000D03*
X142346500Y-110871000D03*
D21*
X124429570Y-97406680D03*
X133634430Y-97411320D03*
X124429570Y-102994680D03*
X133634430Y-102999320D03*
D13*
X160020000Y-117475000D03*
D22*
X146316700Y-109347000D03*
X147815300Y-109347000D03*
X146316700Y-110871000D03*
X147815300Y-110871000D03*
D23*
X126427992Y-110871000D03*
X128427988Y-110871000D03*
X130427984Y-110871000D03*
X132427980Y-110871000D03*
D24*
X123727972Y-117040660D03*
X135128000Y-117040660D03*
D23*
X145635980Y-103832660D03*
X143635984Y-103832660D03*
X141635988Y-103832660D03*
X139635992Y-103832660D03*
D24*
X148336000Y-97663000D03*
X136935972Y-97663000D03*
D11*
X118437660Y-104363012D03*
X118437660Y-106363008D03*
X118437660Y-108363004D03*
X118437660Y-110363000D03*
D12*
X112268000Y-101662992D03*
X112268000Y-113063020D03*
D25*
X154330400Y-96774000D03*
D26*
X151790400Y-96774000D03*
D27*
X151306400Y-99009200D03*
X152806400Y-99009200D03*
D28*
X132346405Y-112854244D03*
X138679889Y-103402090D03*
X121920000Y-117348000D03*
X133859018Y-109373771D03*
X146685000Y-102743000D03*
X115824000Y-118491000D03*
X136906000Y-114808000D03*
X133604000Y-99187000D03*
X118491000Y-98679000D03*
X116967000Y-97155000D03*
X155321000Y-110490000D03*
X120777000Y-104648000D03*
X117221000Y-115570000D03*
X124968000Y-112141000D03*
X121666000Y-112471200D03*
X144923495Y-114052501D03*
X139547568Y-107569000D03*
X141135130Y-116037911D03*
X143163803Y-114995936D03*
X136398000Y-107543600D03*
X141898502Y-101775539D03*
X144392767Y-113371213D03*
X141224000Y-110998000D03*
X149733000Y-113851702D03*
X153543000Y-111887000D03*
X131358088Y-108946121D03*
X128270000Y-104648000D03*
X149595967Y-105142966D03*
X148722937Y-108837709D03*
X124815600Y-113080800D03*
X149480062Y-114677442D03*
X148558493Y-114681020D03*
X138002611Y-106933990D03*
X132689600Y-105333800D03*
X155651200Y-106578400D03*
X137290082Y-106311122D03*
X133477000Y-104521000D03*
X148452093Y-106298980D03*
X141224000Y-108839000D03*
X141097000Y-110109000D03*
X155846672Y-107714048D03*
X128016000Y-114046000D03*
X132461000Y-100203000D03*
X128397000Y-100203000D03*
X130517899Y-103670101D03*
X130175000Y-106595400D03*
D29*
X132427980Y-112772669D02*
X132346405Y-112854244D01*
X132427980Y-110871000D02*
X132427980Y-112772669D01*
X135534398Y-108596432D02*
X135534398Y-105511602D01*
X137213340Y-103832660D02*
X138804142Y-103832660D01*
X133259830Y-110871000D02*
X135534398Y-108596432D01*
X135534398Y-105511602D02*
X137213340Y-103832660D01*
X132427980Y-110871000D02*
X133259830Y-110871000D01*
X138804142Y-103832660D02*
X139635992Y-103832660D01*
X138679889Y-103708407D02*
X138679889Y-103402090D01*
X138804142Y-103832660D02*
X138679889Y-103708407D01*
X120838600Y-117348000D02*
X121920000Y-117348000D01*
X119629000Y-116967000D02*
X120457600Y-116967000D01*
X120457600Y-116967000D02*
X120838600Y-117348000D01*
X119634000Y-118491000D02*
X119634000Y-116972000D01*
X119634000Y-116972000D02*
X119629000Y-116967000D01*
X132080000Y-107569000D02*
X132230000Y-107569000D01*
X132230000Y-107569000D02*
X133859018Y-109198018D01*
X133859018Y-109198018D02*
X133859018Y-109373771D01*
X144057100Y-113975350D02*
X143757765Y-113676015D01*
X144057100Y-115658460D02*
X144057100Y-113975350D01*
X143757765Y-113676015D02*
X143757765Y-113097235D01*
X143757765Y-113097235D02*
X144460000Y-112395000D01*
X145635980Y-103411020D02*
X146304000Y-102743000D01*
X146304000Y-102743000D02*
X146685000Y-102743000D01*
X145635980Y-103832660D02*
X145635980Y-103411020D01*
X145635980Y-103832660D02*
X145635980Y-104614980D01*
X145635980Y-104614980D02*
X147955000Y-106934000D01*
X147955000Y-106934000D02*
X149733000Y-106934000D01*
X149733000Y-106934000D02*
X149987000Y-107188000D01*
X149987000Y-107188000D02*
X149987000Y-108712000D01*
X149987000Y-108712000D02*
X148844000Y-109855000D01*
X148844000Y-109855000D02*
X147815300Y-109855000D01*
X115824000Y-118491000D02*
X117734000Y-118491000D01*
X136906000Y-116078000D02*
X136906000Y-114808000D01*
X137795000Y-116967000D02*
X136906000Y-116078000D01*
X140937040Y-116967000D02*
X137795000Y-116967000D01*
X143057100Y-118358460D02*
X142328500Y-118358460D01*
X142328500Y-118358460D02*
X140937040Y-116967000D01*
X143383000Y-108646000D02*
X142560000Y-107823000D01*
X142560000Y-107823000D02*
X142410000Y-107823000D01*
X143383000Y-111217467D02*
X143383000Y-108646000D01*
X144460000Y-112395000D02*
X144460000Y-112294467D01*
X144460000Y-112294467D02*
X143383000Y-111217467D01*
X133604000Y-99187000D02*
X133604000Y-97441750D01*
X133604000Y-97441750D02*
X133634430Y-97411320D01*
X119847000Y-98679000D02*
X118491000Y-98679000D01*
X118237000Y-95885000D02*
X116967000Y-97155000D01*
X130789510Y-95885000D02*
X118237000Y-95885000D01*
X133634430Y-97411320D02*
X132315830Y-97411320D01*
X132315830Y-97411320D02*
X130789510Y-95885000D01*
X144460000Y-112395000D02*
X144610000Y-112395000D01*
X155321000Y-110490000D02*
X153375360Y-110490000D01*
X153375360Y-110490000D02*
X153342340Y-110456980D01*
X147815300Y-109347000D02*
X147815300Y-109855000D01*
X147815300Y-109855000D02*
X147815300Y-110871000D01*
X120777000Y-104648000D02*
X118722648Y-104648000D01*
X118722648Y-104648000D02*
X118437660Y-104363012D01*
X118437660Y-104363012D02*
X118437660Y-99938340D01*
X118437660Y-99938340D02*
X119697000Y-98679000D01*
X119697000Y-98679000D02*
X119847000Y-98679000D01*
X117729000Y-116078000D02*
X117221000Y-115570000D01*
X117729000Y-116967000D02*
X117729000Y-116078000D01*
X117734000Y-118491000D02*
X117734000Y-116972000D01*
X117734000Y-116972000D02*
X117729000Y-116967000D01*
X150057100Y-118358460D02*
X154274140Y-118358460D01*
X154274140Y-118358460D02*
X154554000Y-118078600D01*
X154554000Y-118078600D02*
X154554000Y-117475000D01*
X154554000Y-115951000D02*
X154554000Y-111668640D01*
X154554000Y-111668640D02*
X153342340Y-110456980D01*
X120020000Y-97155000D02*
X120020000Y-98506000D01*
X120020000Y-98506000D02*
X119847000Y-98679000D01*
X144610000Y-112395000D02*
X146918680Y-112395000D01*
X146918680Y-112395000D02*
X147815300Y-111498380D01*
X147815300Y-111498380D02*
X147815300Y-110871000D01*
X147857100Y-115658460D02*
X149057100Y-115658460D01*
X154554000Y-117475000D02*
X154554000Y-115951000D01*
X145635980Y-102835710D02*
X145635980Y-103832660D01*
X124968000Y-111499142D02*
X124968000Y-112141000D01*
X126427992Y-110871000D02*
X125596142Y-110871000D01*
X125596142Y-110871000D02*
X124968000Y-111499142D01*
X121666000Y-112471200D02*
X121666000Y-112956133D01*
X121666000Y-112956133D02*
X122273267Y-113563400D01*
X122273267Y-113563400D02*
X124276487Y-113563400D01*
X126853313Y-114178713D02*
X127457200Y-114782600D01*
X124276487Y-113563400D02*
X124891800Y-114178713D01*
X124891800Y-114178713D02*
X126853313Y-114178713D01*
X127457200Y-114782600D02*
X130835400Y-114782600D01*
X131978400Y-113639600D02*
X132534662Y-113639600D01*
X130835400Y-114782600D02*
X131978400Y-113639600D01*
X132534662Y-113639600D02*
X133323331Y-112850931D01*
X141135130Y-116037911D02*
X140792231Y-115695012D01*
X137337800Y-107569000D02*
X139547568Y-107569000D01*
X140792231Y-115695012D02*
X140792231Y-115468431D01*
X133323331Y-111583469D02*
X137337800Y-107569000D01*
X140792231Y-115468431D02*
X139636501Y-114312701D01*
X139636501Y-114312701D02*
X137942319Y-114312701D01*
X137942319Y-114312701D02*
X137015218Y-113385600D01*
X137015218Y-113385600D02*
X133832600Y-113385600D01*
X133832600Y-113385600D02*
X133324600Y-112877600D01*
X133324600Y-112877600D02*
X133324600Y-112852200D01*
X133324600Y-112852200D02*
X133323331Y-112850931D01*
X133323331Y-112850931D02*
X133323331Y-111583469D01*
X145257100Y-114386106D02*
X144923495Y-114052501D01*
X145257100Y-115658460D02*
X145257100Y-114386106D01*
X143163803Y-115004601D02*
X143163803Y-114995936D01*
X141224000Y-110998000D02*
X141224000Y-111482933D01*
X143302101Y-114372705D02*
X143163803Y-114511003D01*
X141354168Y-111613101D02*
X143203883Y-111613101D01*
X143163803Y-114511003D02*
X143163803Y-114995936D01*
X143302101Y-111711319D02*
X143302101Y-114372705D01*
X143302101Y-115142899D02*
X143163803Y-115004601D01*
X141224000Y-111482933D02*
X141354168Y-111613101D01*
X143203883Y-111613101D02*
X143302101Y-111711319D01*
D30*
X136398000Y-107058667D02*
X136398000Y-107543600D01*
X138402060Y-105813860D02*
X137947400Y-105359200D01*
X141635988Y-103832660D02*
X141635988Y-104829610D01*
X137947400Y-105359200D02*
X136702800Y-105359200D01*
X140651738Y-105813860D02*
X138402060Y-105813860D01*
X141635988Y-104829610D02*
X140651738Y-105813860D01*
X136398000Y-105664000D02*
X136398000Y-107058667D01*
X136702800Y-105359200D02*
X136398000Y-105664000D01*
D29*
X141635988Y-102003860D02*
X141864309Y-101775539D01*
X141635988Y-103832660D02*
X141635988Y-102003860D01*
X141864309Y-101775539D02*
X141898502Y-101775539D01*
X144877700Y-113371213D02*
X144392767Y-113371213D01*
X149733000Y-113851702D02*
X149252511Y-113371213D01*
X149252511Y-113371213D02*
X144877700Y-113371213D01*
X124841000Y-102583250D02*
X124429570Y-102994680D01*
X153543000Y-114458400D02*
X153543000Y-111887000D01*
X152654000Y-115951000D02*
X152654000Y-115347400D01*
X152654000Y-115347400D02*
X153543000Y-114458400D01*
X130427984Y-109874050D02*
X131355913Y-108946121D01*
X130427984Y-110871000D02*
X130427984Y-109874050D01*
X131355913Y-108946121D02*
X131358088Y-108946121D01*
D30*
X128270000Y-104648000D02*
X128270000Y-104163067D01*
X125748170Y-102994680D02*
X124429570Y-102994680D01*
X127101613Y-102994680D02*
X125748170Y-102994680D01*
X128270000Y-104163067D02*
X127101613Y-102994680D01*
D29*
X152654000Y-117475000D02*
X152654000Y-115951000D01*
X124429570Y-97406680D02*
X127311930Y-97406680D01*
X149595967Y-104658033D02*
X149595967Y-105142966D01*
X149595967Y-104139412D02*
X149595967Y-104658033D01*
X140166660Y-100685589D02*
X146142144Y-100685589D01*
X131403660Y-101498411D02*
X139353839Y-101498411D01*
X127311930Y-97406680D02*
X131403660Y-101498411D01*
X146142144Y-100685589D02*
X149595967Y-104139412D01*
X139353839Y-101498411D02*
X140166660Y-100685589D01*
X121920000Y-97155000D02*
X124177890Y-97155000D01*
X124177890Y-97155000D02*
X124429570Y-97406680D01*
X148507091Y-108621863D02*
X148722937Y-108837709D01*
X147422863Y-108621863D02*
X148507091Y-108621863D01*
X146474000Y-107823000D02*
X146624000Y-107823000D01*
X146624000Y-107823000D02*
X147422863Y-108621863D01*
X144610000Y-107823000D02*
X146474000Y-107823000D01*
X124282200Y-113080800D02*
X121564400Y-110363000D01*
X121564400Y-110363000D02*
X118437660Y-110363000D01*
X124815600Y-113080800D02*
X124282200Y-113080800D01*
X119382807Y-96291411D02*
X115951000Y-99723218D01*
X146380180Y-100279180D02*
X139001554Y-100279180D01*
X131572000Y-101092000D02*
X126771411Y-96291411D01*
X117440710Y-110363000D02*
X118437660Y-110363000D01*
X115951000Y-108873290D02*
X117440710Y-110363000D01*
X115951000Y-99723218D02*
X115951000Y-108873290D01*
X126771411Y-96291411D02*
X119382807Y-96291411D01*
X138188734Y-101092000D02*
X131572000Y-101092000D01*
X153342340Y-104456992D02*
X150557992Y-104456992D01*
X139001554Y-100279180D02*
X138188734Y-101092000D01*
X150557992Y-104456992D02*
X146380180Y-100279180D01*
X144526000Y-109347000D02*
X146316700Y-109347000D01*
X144546500Y-110871000D02*
X146316700Y-110871000D01*
X128427988Y-110871000D02*
X128427988Y-109862988D01*
X128427988Y-109862988D02*
X126134000Y-107569000D01*
X126134000Y-107569000D02*
X125984000Y-107569000D01*
X146354802Y-106217296D02*
X147960506Y-107823000D01*
X145023670Y-106217296D02*
X146354802Y-106217296D01*
X143635984Y-104829610D02*
X145023670Y-106217296D01*
X147960506Y-107823000D02*
X148674000Y-107823000D01*
X143635984Y-103832660D02*
X143635984Y-104829610D01*
X145907100Y-115658460D02*
X145907100Y-114754860D01*
X149480062Y-114538568D02*
X149480062Y-114677442D01*
X145907100Y-114754860D02*
X146615960Y-114046000D01*
X146615960Y-114046000D02*
X148987494Y-114046000D01*
X148987494Y-114046000D02*
X149480062Y-114538568D01*
X146630940Y-114681020D02*
X148073560Y-114681020D01*
X146557100Y-114754860D02*
X146630940Y-114681020D01*
X146557100Y-115658460D02*
X146557100Y-114754860D01*
X148073560Y-114681020D02*
X148558493Y-114681020D01*
X142410000Y-115257400D02*
X142410000Y-112395000D01*
X144823419Y-116625561D02*
X144623428Y-116425570D01*
X147207100Y-116409242D02*
X146990781Y-116625561D01*
X142582954Y-115419171D02*
X142571771Y-115419171D01*
X143589353Y-116425570D02*
X142582954Y-115419171D01*
X142571771Y-115419171D02*
X142410000Y-115257400D01*
X147207100Y-115658460D02*
X147207100Y-116409242D01*
X146990781Y-116625561D02*
X144823419Y-116625561D01*
X144623428Y-116425570D02*
X143589353Y-116425570D01*
X132689600Y-105333800D02*
X122224800Y-105333800D01*
X122224800Y-105333800D02*
X121195592Y-106363008D01*
X121195592Y-106363008D02*
X118437660Y-106363008D01*
X154330400Y-96774000D02*
X154330400Y-101828600D01*
X154330400Y-101828600D02*
X157302200Y-104800400D01*
X157302200Y-104800400D02*
X157302200Y-107416600D01*
X157302200Y-107416600D02*
X156261816Y-108456984D01*
X156261816Y-108456984D02*
X153342340Y-108456984D01*
X139877794Y-106933990D02*
X138487544Y-106933990D01*
X139928587Y-111469355D02*
X139928587Y-108873859D01*
X139928587Y-108873859D02*
X140182588Y-108619858D01*
X140843000Y-112383768D02*
X139928587Y-111469355D01*
X143241490Y-117238392D02*
X140843000Y-114839902D01*
X153342340Y-108456984D02*
X152345390Y-108456984D01*
X152345390Y-108456984D02*
X151282411Y-109519963D01*
X144286748Y-117238392D02*
X143241490Y-117238392D01*
X149086784Y-117438383D02*
X144486739Y-117438383D01*
X140182588Y-107238784D02*
X139877794Y-106933990D01*
X151282411Y-115242756D02*
X149086784Y-117438383D01*
X138487544Y-106933990D02*
X138002611Y-106933990D01*
X151282411Y-109519963D02*
X151282411Y-115242756D01*
X144486739Y-117438383D02*
X144286748Y-117238392D01*
X140843000Y-114839902D02*
X140843000Y-112383768D01*
X140182588Y-108619858D02*
X140182588Y-107238784D01*
X152806400Y-99009200D02*
X153285000Y-99009200D01*
X153285000Y-99009200D02*
X154330400Y-97963800D01*
X154330400Y-97963800D02*
X154330400Y-97852600D01*
X154330400Y-97852600D02*
X154330400Y-96774000D01*
X118437660Y-108363004D02*
X120186196Y-108363004D01*
X133477000Y-105005933D02*
X133477000Y-104521000D01*
X120186196Y-108363004D02*
X122707400Y-105841800D01*
X122707400Y-105841800D02*
X131826000Y-105841800D01*
X131826000Y-105841800D02*
X132384789Y-106400589D01*
X132930761Y-106400589D02*
X133477000Y-105854350D01*
X132384789Y-106400589D02*
X132930761Y-106400589D01*
X133477000Y-105854350D02*
X133477000Y-105005933D01*
X144455088Y-116831981D02*
X143409830Y-116831981D01*
X150876000Y-115074416D02*
X149118435Y-116831981D01*
X141351000Y-114773151D02*
X141351000Y-112190024D01*
X137787149Y-106298988D02*
X137775015Y-106311122D01*
X140588999Y-108788198D02*
X140588999Y-107070444D01*
X140334998Y-109042198D02*
X140350928Y-109026269D01*
X149118435Y-116831981D02*
X147359112Y-116831981D01*
X140334998Y-111174022D02*
X140334998Y-109042198D01*
X141351000Y-112190024D02*
X140334998Y-111174022D01*
X139817543Y-106298988D02*
X137787149Y-106298988D01*
X140350928Y-109026269D02*
X140588999Y-108788198D01*
X143409830Y-116831981D02*
X141351000Y-114773151D01*
X144655079Y-117031972D02*
X144455088Y-116831981D01*
X137775015Y-106311122D02*
X137290082Y-106311122D01*
X147159121Y-117031972D02*
X144655079Y-117031972D01*
X150876000Y-107926378D02*
X150876000Y-115074416D01*
X153342340Y-106456988D02*
X152345390Y-106456988D01*
X140588999Y-107070444D02*
X139817543Y-106298988D01*
X152345390Y-106456988D02*
X150876000Y-107926378D01*
X147359112Y-116831981D02*
X147159121Y-117031972D01*
X155651200Y-106578400D02*
X153463752Y-106578400D01*
X153463752Y-106578400D02*
X153342340Y-106456988D01*
X136011991Y-101940359D02*
X139486641Y-101940359D01*
X140335000Y-101092000D02*
X145973804Y-101092000D01*
X134953030Y-102999320D02*
X136011991Y-101940359D01*
X145973804Y-101092000D02*
X148452093Y-103570289D01*
X133634430Y-102999320D02*
X134953030Y-102999320D01*
X139486641Y-101940359D02*
X140335000Y-101092000D01*
X148452093Y-103570289D02*
X148452093Y-105814047D01*
X148452093Y-105814047D02*
X148452093Y-106298980D01*
X122875600Y-98679000D02*
X122047000Y-98679000D01*
X132315830Y-102999320D02*
X127995510Y-98679000D01*
X133634430Y-102999320D02*
X132315830Y-102999320D01*
X127995510Y-98679000D02*
X122875600Y-98679000D01*
X141224000Y-109073600D02*
X141224000Y-108839000D01*
X142326000Y-109347000D02*
X141497400Y-109347000D01*
X141497400Y-109347000D02*
X141224000Y-109073600D01*
X141097000Y-110109000D02*
X141584500Y-110109000D01*
X141584500Y-110109000D02*
X142346500Y-110871000D01*
X156298899Y-107261821D02*
X156189571Y-107371149D01*
X146497750Y-99822000D02*
X149799750Y-103124000D01*
X154940000Y-103124000D02*
X156298899Y-104482899D01*
X156189571Y-107371149D02*
X155846672Y-107714048D01*
X156298899Y-104482899D02*
X156298899Y-107261821D01*
X138100900Y-100605083D02*
X138883983Y-99822000D01*
X132863083Y-100605083D02*
X138100900Y-100605083D01*
X138883983Y-99822000D02*
X146497750Y-99822000D01*
X132461000Y-100203000D02*
X132863083Y-100605083D01*
X149799750Y-103124000D02*
X154940000Y-103124000D01*
X128016000Y-114046000D02*
X129413000Y-112649000D01*
X129413000Y-112649000D02*
X129413000Y-108714600D01*
X129413000Y-108714600D02*
X129880000Y-108247600D01*
X129880000Y-108247600D02*
X129880000Y-107569000D01*
X128651000Y-101318269D02*
X128651000Y-100457000D01*
X128651000Y-100457000D02*
X128397000Y-100203000D01*
X130517899Y-103670101D02*
X130517899Y-103185168D01*
X130517899Y-103185168D02*
X128651000Y-101318269D01*
X129880000Y-106890400D02*
X130175000Y-106595400D01*
X129880000Y-107569000D02*
X129880000Y-106890400D01*
X130030000Y-107569000D02*
X129880000Y-107569000D01*
X128184000Y-107569000D02*
X129880000Y-107569000D01*
X151306400Y-99009200D02*
X151306400Y-97258000D01*
X151306400Y-97258000D02*
X151790400Y-96774000D01*
D31*
G36*
X157857094Y-95806700D02*
X157505837Y-96652621D01*
X157504964Y-97652990D01*
X157886983Y-98577546D01*
X158593734Y-99285531D01*
X159517621Y-99669163D01*
X160517990Y-99670036D01*
X161368858Y-99318464D01*
X161798000Y-99747606D01*
X161798000Y-100544395D01*
X156862018Y-100544395D01*
X156730241Y-100569191D01*
X156609211Y-100647071D01*
X156528017Y-100765903D01*
X156499452Y-100906961D01*
X156499452Y-102606983D01*
X156524248Y-102738760D01*
X156602128Y-102859790D01*
X156720960Y-102940984D01*
X156862018Y-102969549D01*
X161798000Y-102969549D01*
X161798000Y-111944423D01*
X156862018Y-111944423D01*
X156730241Y-111969219D01*
X156609211Y-112047099D01*
X156528017Y-112165931D01*
X156499452Y-112306989D01*
X156499452Y-114007011D01*
X156524248Y-114138788D01*
X156602128Y-114259818D01*
X156720960Y-114341012D01*
X156862018Y-114369577D01*
X161798000Y-114369577D01*
X161798000Y-115511587D01*
X161698354Y-115596998D01*
X161446266Y-115344469D01*
X160522379Y-114960837D01*
X159522010Y-114959964D01*
X158597454Y-115341983D01*
X157889469Y-116048734D01*
X157505837Y-116972621D01*
X157504964Y-117972990D01*
X157876713Y-118872691D01*
X157433019Y-119253000D01*
X151093169Y-119253000D01*
X151169362Y-119177978D01*
X151373897Y-118694808D01*
X151241571Y-118485460D01*
X150184100Y-118485460D01*
X150184100Y-118505460D01*
X149930100Y-118505460D01*
X149930100Y-118485460D01*
X148872629Y-118485460D01*
X148740303Y-118694808D01*
X148944838Y-119177978D01*
X149021031Y-119253000D01*
X144093169Y-119253000D01*
X144169362Y-119177978D01*
X144373897Y-118694808D01*
X144241571Y-118485460D01*
X143184100Y-118485460D01*
X143184100Y-118505460D01*
X142930100Y-118505460D01*
X142930100Y-118485460D01*
X141872629Y-118485460D01*
X141740303Y-118694808D01*
X141944838Y-119177978D01*
X142021031Y-119253000D01*
X140003056Y-119253000D01*
X140233376Y-119099105D01*
X140497665Y-118703568D01*
X140590471Y-118237000D01*
X140497665Y-117770432D01*
X140233376Y-117374895D01*
X139837839Y-117110606D01*
X139371271Y-117017800D01*
X139012729Y-117017800D01*
X138546161Y-117110606D01*
X138150624Y-117374895D01*
X137886335Y-117770432D01*
X137793529Y-118237000D01*
X137886335Y-118703568D01*
X138150624Y-119099105D01*
X138380944Y-119253000D01*
X136340577Y-119253000D01*
X136340577Y-114390678D01*
X136315781Y-114258901D01*
X136237901Y-114137871D01*
X136119069Y-114056677D01*
X135978011Y-114028112D01*
X134277989Y-114028112D01*
X134146212Y-114052908D01*
X134025182Y-114130788D01*
X133943988Y-114249620D01*
X133915423Y-114390678D01*
X133915423Y-119253000D01*
X124940549Y-119253000D01*
X124940549Y-114648613D01*
X126658675Y-114648613D01*
X127124930Y-115114869D01*
X127235216Y-115188560D01*
X127277377Y-115216731D01*
X127457200Y-115252500D01*
X130835400Y-115252500D01*
X131015223Y-115216731D01*
X131167669Y-115114869D01*
X132173039Y-114109500D01*
X132534662Y-114109500D01*
X132714485Y-114073731D01*
X132866931Y-113971869D01*
X133310631Y-113528170D01*
X133500330Y-113717869D01*
X133652316Y-113819423D01*
X133652777Y-113819731D01*
X133832600Y-113855500D01*
X136820580Y-113855500D01*
X137610050Y-114644971D01*
X137755484Y-114742147D01*
X137762496Y-114746832D01*
X137942319Y-114782601D01*
X138228888Y-114782601D01*
X138150624Y-114834895D01*
X137886335Y-115230432D01*
X137793529Y-115697000D01*
X137886335Y-116163568D01*
X138150624Y-116559105D01*
X138546161Y-116823394D01*
X139012729Y-116916200D01*
X139371271Y-116916200D01*
X139837839Y-116823394D01*
X140233376Y-116559105D01*
X140456641Y-116224965D01*
X140542626Y-116433062D01*
X140738945Y-116629725D01*
X140995580Y-116736289D01*
X141273461Y-116736532D01*
X141530281Y-116630415D01*
X141726944Y-116434096D01*
X141740356Y-116401796D01*
X142450544Y-117111985D01*
X142318705Y-117170823D01*
X141944838Y-117538942D01*
X141740303Y-118022112D01*
X141872629Y-118231460D01*
X142930100Y-118231460D01*
X142930100Y-118211460D01*
X143184100Y-118211460D01*
X143184100Y-118231460D01*
X144241571Y-118231460D01*
X144373897Y-118022112D01*
X144310905Y-117873308D01*
X144486739Y-117908283D01*
X148788489Y-117908283D01*
X148740303Y-118022112D01*
X148872629Y-118231460D01*
X149930100Y-118231460D01*
X149930100Y-118211460D01*
X150184100Y-118211460D01*
X150184100Y-118231460D01*
X151241571Y-118231460D01*
X151373897Y-118022112D01*
X151169362Y-117538942D01*
X150795495Y-117170823D01*
X150392189Y-116990831D01*
X150184102Y-117114020D01*
X150184102Y-117005603D01*
X151614680Y-115575026D01*
X151716542Y-115422579D01*
X151719703Y-115406686D01*
X151752311Y-115242756D01*
X151752311Y-111695230D01*
X152866306Y-111695230D01*
X152844622Y-111747450D01*
X152844379Y-112025331D01*
X152950496Y-112282151D01*
X153073100Y-112404970D01*
X153073100Y-114263761D01*
X152321731Y-115015131D01*
X152219869Y-115167577D01*
X152210747Y-115213434D01*
X152054000Y-115213434D01*
X151922223Y-115238230D01*
X151801193Y-115316110D01*
X151719999Y-115434942D01*
X151691434Y-115576000D01*
X151691434Y-116326000D01*
X151716230Y-116457777D01*
X151794110Y-116578807D01*
X151912942Y-116660001D01*
X152054000Y-116688566D01*
X152184100Y-116688566D01*
X152184100Y-116737434D01*
X152054000Y-116737434D01*
X151922223Y-116762230D01*
X151801193Y-116840110D01*
X151719999Y-116958942D01*
X151691434Y-117100000D01*
X151691434Y-117850000D01*
X151716230Y-117981777D01*
X151794110Y-118102807D01*
X151912942Y-118184001D01*
X152054000Y-118212566D01*
X153254000Y-118212566D01*
X153385777Y-118187770D01*
X153402210Y-118177196D01*
X153415673Y-118209699D01*
X153594302Y-118388327D01*
X153827691Y-118485000D01*
X154268250Y-118485000D01*
X154427000Y-118326250D01*
X154427000Y-117602000D01*
X154681000Y-117602000D01*
X154681000Y-118326250D01*
X154839750Y-118485000D01*
X155280309Y-118485000D01*
X155513698Y-118388327D01*
X155692327Y-118209699D01*
X155789000Y-117976310D01*
X155789000Y-117760750D01*
X155630250Y-117602000D01*
X154681000Y-117602000D01*
X154427000Y-117602000D01*
X154407000Y-117602000D01*
X154407000Y-117348000D01*
X154427000Y-117348000D01*
X154427000Y-116078000D01*
X154681000Y-116078000D01*
X154681000Y-117348000D01*
X155630250Y-117348000D01*
X155789000Y-117189250D01*
X155789000Y-116973690D01*
X155692327Y-116740301D01*
X155665026Y-116713000D01*
X155692327Y-116685699D01*
X155789000Y-116452310D01*
X155789000Y-116236750D01*
X155630250Y-116078000D01*
X154681000Y-116078000D01*
X154427000Y-116078000D01*
X154407000Y-116078000D01*
X154407000Y-115824000D01*
X154427000Y-115824000D01*
X154427000Y-115099750D01*
X154681000Y-115099750D01*
X154681000Y-115824000D01*
X155630250Y-115824000D01*
X155789000Y-115665250D01*
X155789000Y-115449690D01*
X155692327Y-115216301D01*
X155513698Y-115037673D01*
X155280309Y-114941000D01*
X154839750Y-114941000D01*
X154681000Y-115099750D01*
X154427000Y-115099750D01*
X154268250Y-114941000D01*
X153827691Y-114941000D01*
X153652282Y-115013657D01*
X153875270Y-114790669D01*
X153977131Y-114638223D01*
X153982179Y-114612844D01*
X154012900Y-114458400D01*
X154012900Y-112404886D01*
X154134814Y-112283185D01*
X154241378Y-112026550D01*
X154241621Y-111748669D01*
X154219540Y-111695230D01*
X155068850Y-111695230D01*
X155302239Y-111598557D01*
X155480867Y-111419928D01*
X155577540Y-111186539D01*
X155577540Y-110742730D01*
X155418790Y-110583980D01*
X153469340Y-110583980D01*
X153469340Y-110603980D01*
X153215340Y-110603980D01*
X153215340Y-110583980D01*
X153195340Y-110583980D01*
X153195340Y-110329980D01*
X153215340Y-110329980D01*
X153215340Y-110309980D01*
X153469340Y-110309980D01*
X153469340Y-110329980D01*
X155418790Y-110329980D01*
X155577540Y-110171230D01*
X155577540Y-109727421D01*
X155480867Y-109494032D01*
X155302239Y-109315403D01*
X155221440Y-109281935D01*
X155276541Y-109201292D01*
X155305106Y-109060234D01*
X155305106Y-108926884D01*
X156261816Y-108926884D01*
X156441639Y-108891115D01*
X156594085Y-108789253D01*
X157634469Y-107748870D01*
X157736331Y-107596423D01*
X157746838Y-107543600D01*
X157772100Y-107416600D01*
X157772100Y-104800400D01*
X157736331Y-104620577D01*
X157704904Y-104573543D01*
X157634470Y-104468131D01*
X154800300Y-101633962D01*
X154800300Y-97986566D01*
X155180400Y-97986566D01*
X155312177Y-97961770D01*
X155433207Y-97883890D01*
X155514401Y-97765058D01*
X155542966Y-97624000D01*
X155542966Y-95924000D01*
X155518170Y-95792223D01*
X155440290Y-95671193D01*
X155321458Y-95589999D01*
X155180400Y-95561434D01*
X153480400Y-95561434D01*
X153348623Y-95586230D01*
X153227593Y-95664110D01*
X153146399Y-95782942D01*
X153117834Y-95924000D01*
X153117834Y-97624000D01*
X153142630Y-97755777D01*
X153220510Y-97876807D01*
X153339342Y-97958001D01*
X153480400Y-97986566D01*
X153643095Y-97986566D01*
X153319022Y-98310639D01*
X153316290Y-98306393D01*
X153197458Y-98225199D01*
X153056400Y-98196634D01*
X152556400Y-98196634D01*
X152424623Y-98221430D01*
X152303593Y-98299310D01*
X152222399Y-98418142D01*
X152193834Y-98559200D01*
X152193834Y-99459200D01*
X152218630Y-99590977D01*
X152296510Y-99712007D01*
X152415342Y-99793201D01*
X152556400Y-99821766D01*
X153056400Y-99821766D01*
X153188177Y-99796970D01*
X153309207Y-99719090D01*
X153390401Y-99600258D01*
X153418966Y-99459200D01*
X153418966Y-99452453D01*
X153464823Y-99443331D01*
X153617269Y-99341469D01*
X153860500Y-99098238D01*
X153860500Y-101828600D01*
X153890546Y-101979653D01*
X153896269Y-102008423D01*
X153998131Y-102160869D01*
X154491362Y-102654100D01*
X149994389Y-102654100D01*
X148015836Y-100675548D01*
X149186011Y-100675548D01*
X149317788Y-100650752D01*
X149438818Y-100572872D01*
X149520012Y-100454040D01*
X149548577Y-100312982D01*
X149548577Y-96750381D01*
X150584800Y-96750381D01*
X150584800Y-96797619D01*
X150676571Y-97258982D01*
X150836500Y-97498333D01*
X150836500Y-98278135D01*
X150803593Y-98299310D01*
X150722399Y-98418142D01*
X150693834Y-98559200D01*
X150693834Y-99459200D01*
X150718630Y-99590977D01*
X150796510Y-99712007D01*
X150915342Y-99793201D01*
X151056400Y-99821766D01*
X151556400Y-99821766D01*
X151688177Y-99796970D01*
X151809207Y-99719090D01*
X151890401Y-99600258D01*
X151918966Y-99459200D01*
X151918966Y-98559200D01*
X151894170Y-98427423D01*
X151816290Y-98306393D01*
X151776300Y-98279069D01*
X151776300Y-98000414D01*
X151790400Y-98003219D01*
X152251763Y-97911448D01*
X152642888Y-97650107D01*
X152904229Y-97258982D01*
X152996000Y-96797619D01*
X152996000Y-96750381D01*
X152904229Y-96289018D01*
X152642888Y-95897893D01*
X152251763Y-95636552D01*
X151790400Y-95544781D01*
X151329037Y-95636552D01*
X150937912Y-95897893D01*
X150676571Y-96289018D01*
X150584800Y-96750381D01*
X149548577Y-96750381D01*
X149548577Y-95377000D01*
X157427394Y-95377000D01*
X157857094Y-95806700D01*
X157857094Y-95806700D01*
G37*
X157857094Y-95806700D02*
X157505837Y-96652621D01*
X157504964Y-97652990D01*
X157886983Y-98577546D01*
X158593734Y-99285531D01*
X159517621Y-99669163D01*
X160517990Y-99670036D01*
X161368858Y-99318464D01*
X161798000Y-99747606D01*
X161798000Y-100544395D01*
X156862018Y-100544395D01*
X156730241Y-100569191D01*
X156609211Y-100647071D01*
X156528017Y-100765903D01*
X156499452Y-100906961D01*
X156499452Y-102606983D01*
X156524248Y-102738760D01*
X156602128Y-102859790D01*
X156720960Y-102940984D01*
X156862018Y-102969549D01*
X161798000Y-102969549D01*
X161798000Y-111944423D01*
X156862018Y-111944423D01*
X156730241Y-111969219D01*
X156609211Y-112047099D01*
X156528017Y-112165931D01*
X156499452Y-112306989D01*
X156499452Y-114007011D01*
X156524248Y-114138788D01*
X156602128Y-114259818D01*
X156720960Y-114341012D01*
X156862018Y-114369577D01*
X161798000Y-114369577D01*
X161798000Y-115511587D01*
X161698354Y-115596998D01*
X161446266Y-115344469D01*
X160522379Y-114960837D01*
X159522010Y-114959964D01*
X158597454Y-115341983D01*
X157889469Y-116048734D01*
X157505837Y-116972621D01*
X157504964Y-117972990D01*
X157876713Y-118872691D01*
X157433019Y-119253000D01*
X151093169Y-119253000D01*
X151169362Y-119177978D01*
X151373897Y-118694808D01*
X151241571Y-118485460D01*
X150184100Y-118485460D01*
X150184100Y-118505460D01*
X149930100Y-118505460D01*
X149930100Y-118485460D01*
X148872629Y-118485460D01*
X148740303Y-118694808D01*
X148944838Y-119177978D01*
X149021031Y-119253000D01*
X144093169Y-119253000D01*
X144169362Y-119177978D01*
X144373897Y-118694808D01*
X144241571Y-118485460D01*
X143184100Y-118485460D01*
X143184100Y-118505460D01*
X142930100Y-118505460D01*
X142930100Y-118485460D01*
X141872629Y-118485460D01*
X141740303Y-118694808D01*
X141944838Y-119177978D01*
X142021031Y-119253000D01*
X140003056Y-119253000D01*
X140233376Y-119099105D01*
X140497665Y-118703568D01*
X140590471Y-118237000D01*
X140497665Y-117770432D01*
X140233376Y-117374895D01*
X139837839Y-117110606D01*
X139371271Y-117017800D01*
X139012729Y-117017800D01*
X138546161Y-117110606D01*
X138150624Y-117374895D01*
X137886335Y-117770432D01*
X137793529Y-118237000D01*
X137886335Y-118703568D01*
X138150624Y-119099105D01*
X138380944Y-119253000D01*
X136340577Y-119253000D01*
X136340577Y-114390678D01*
X136315781Y-114258901D01*
X136237901Y-114137871D01*
X136119069Y-114056677D01*
X135978011Y-114028112D01*
X134277989Y-114028112D01*
X134146212Y-114052908D01*
X134025182Y-114130788D01*
X133943988Y-114249620D01*
X133915423Y-114390678D01*
X133915423Y-119253000D01*
X124940549Y-119253000D01*
X124940549Y-114648613D01*
X126658675Y-114648613D01*
X127124930Y-115114869D01*
X127235216Y-115188560D01*
X127277377Y-115216731D01*
X127457200Y-115252500D01*
X130835400Y-115252500D01*
X131015223Y-115216731D01*
X131167669Y-115114869D01*
X132173039Y-114109500D01*
X132534662Y-114109500D01*
X132714485Y-114073731D01*
X132866931Y-113971869D01*
X133310631Y-113528170D01*
X133500330Y-113717869D01*
X133652316Y-113819423D01*
X133652777Y-113819731D01*
X133832600Y-113855500D01*
X136820580Y-113855500D01*
X137610050Y-114644971D01*
X137755484Y-114742147D01*
X137762496Y-114746832D01*
X137942319Y-114782601D01*
X138228888Y-114782601D01*
X138150624Y-114834895D01*
X137886335Y-115230432D01*
X137793529Y-115697000D01*
X137886335Y-116163568D01*
X138150624Y-116559105D01*
X138546161Y-116823394D01*
X139012729Y-116916200D01*
X139371271Y-116916200D01*
X139837839Y-116823394D01*
X140233376Y-116559105D01*
X140456641Y-116224965D01*
X140542626Y-116433062D01*
X140738945Y-116629725D01*
X140995580Y-116736289D01*
X141273461Y-116736532D01*
X141530281Y-116630415D01*
X141726944Y-116434096D01*
X141740356Y-116401796D01*
X142450544Y-117111985D01*
X142318705Y-117170823D01*
X141944838Y-117538942D01*
X141740303Y-118022112D01*
X141872629Y-118231460D01*
X142930100Y-118231460D01*
X142930100Y-118211460D01*
X143184100Y-118211460D01*
X143184100Y-118231460D01*
X144241571Y-118231460D01*
X144373897Y-118022112D01*
X144310905Y-117873308D01*
X144486739Y-117908283D01*
X148788489Y-117908283D01*
X148740303Y-118022112D01*
X148872629Y-118231460D01*
X149930100Y-118231460D01*
X149930100Y-118211460D01*
X150184100Y-118211460D01*
X150184100Y-118231460D01*
X151241571Y-118231460D01*
X151373897Y-118022112D01*
X151169362Y-117538942D01*
X150795495Y-117170823D01*
X150392189Y-116990831D01*
X150184102Y-117114020D01*
X150184102Y-117005603D01*
X151614680Y-115575026D01*
X151716542Y-115422579D01*
X151719703Y-115406686D01*
X151752311Y-115242756D01*
X151752311Y-111695230D01*
X152866306Y-111695230D01*
X152844622Y-111747450D01*
X152844379Y-112025331D01*
X152950496Y-112282151D01*
X153073100Y-112404970D01*
X153073100Y-114263761D01*
X152321731Y-115015131D01*
X152219869Y-115167577D01*
X152210747Y-115213434D01*
X152054000Y-115213434D01*
X151922223Y-115238230D01*
X151801193Y-115316110D01*
X151719999Y-115434942D01*
X151691434Y-115576000D01*
X151691434Y-116326000D01*
X151716230Y-116457777D01*
X151794110Y-116578807D01*
X151912942Y-116660001D01*
X152054000Y-116688566D01*
X152184100Y-116688566D01*
X152184100Y-116737434D01*
X152054000Y-116737434D01*
X151922223Y-116762230D01*
X151801193Y-116840110D01*
X151719999Y-116958942D01*
X151691434Y-117100000D01*
X151691434Y-117850000D01*
X151716230Y-117981777D01*
X151794110Y-118102807D01*
X151912942Y-118184001D01*
X152054000Y-118212566D01*
X153254000Y-118212566D01*
X153385777Y-118187770D01*
X153402210Y-118177196D01*
X153415673Y-118209699D01*
X153594302Y-118388327D01*
X153827691Y-118485000D01*
X154268250Y-118485000D01*
X154427000Y-118326250D01*
X154427000Y-117602000D01*
X154681000Y-117602000D01*
X154681000Y-118326250D01*
X154839750Y-118485000D01*
X155280309Y-118485000D01*
X155513698Y-118388327D01*
X155692327Y-118209699D01*
X155789000Y-117976310D01*
X155789000Y-117760750D01*
X155630250Y-117602000D01*
X154681000Y-117602000D01*
X154427000Y-117602000D01*
X154407000Y-117602000D01*
X154407000Y-117348000D01*
X154427000Y-117348000D01*
X154427000Y-116078000D01*
X154681000Y-116078000D01*
X154681000Y-117348000D01*
X155630250Y-117348000D01*
X155789000Y-117189250D01*
X155789000Y-116973690D01*
X155692327Y-116740301D01*
X155665026Y-116713000D01*
X155692327Y-116685699D01*
X155789000Y-116452310D01*
X155789000Y-116236750D01*
X155630250Y-116078000D01*
X154681000Y-116078000D01*
X154427000Y-116078000D01*
X154407000Y-116078000D01*
X154407000Y-115824000D01*
X154427000Y-115824000D01*
X154427000Y-115099750D01*
X154681000Y-115099750D01*
X154681000Y-115824000D01*
X155630250Y-115824000D01*
X155789000Y-115665250D01*
X155789000Y-115449690D01*
X155692327Y-115216301D01*
X155513698Y-115037673D01*
X155280309Y-114941000D01*
X154839750Y-114941000D01*
X154681000Y-115099750D01*
X154427000Y-115099750D01*
X154268250Y-114941000D01*
X153827691Y-114941000D01*
X153652282Y-115013657D01*
X153875270Y-114790669D01*
X153977131Y-114638223D01*
X153982179Y-114612844D01*
X154012900Y-114458400D01*
X154012900Y-112404886D01*
X154134814Y-112283185D01*
X154241378Y-112026550D01*
X154241621Y-111748669D01*
X154219540Y-111695230D01*
X155068850Y-111695230D01*
X155302239Y-111598557D01*
X155480867Y-111419928D01*
X155577540Y-111186539D01*
X155577540Y-110742730D01*
X155418790Y-110583980D01*
X153469340Y-110583980D01*
X153469340Y-110603980D01*
X153215340Y-110603980D01*
X153215340Y-110583980D01*
X153195340Y-110583980D01*
X153195340Y-110329980D01*
X153215340Y-110329980D01*
X153215340Y-110309980D01*
X153469340Y-110309980D01*
X153469340Y-110329980D01*
X155418790Y-110329980D01*
X155577540Y-110171230D01*
X155577540Y-109727421D01*
X155480867Y-109494032D01*
X155302239Y-109315403D01*
X155221440Y-109281935D01*
X155276541Y-109201292D01*
X155305106Y-109060234D01*
X155305106Y-108926884D01*
X156261816Y-108926884D01*
X156441639Y-108891115D01*
X156594085Y-108789253D01*
X157634469Y-107748870D01*
X157736331Y-107596423D01*
X157746838Y-107543600D01*
X157772100Y-107416600D01*
X157772100Y-104800400D01*
X157736331Y-104620577D01*
X157704904Y-104573543D01*
X157634470Y-104468131D01*
X154800300Y-101633962D01*
X154800300Y-97986566D01*
X155180400Y-97986566D01*
X155312177Y-97961770D01*
X155433207Y-97883890D01*
X155514401Y-97765058D01*
X155542966Y-97624000D01*
X155542966Y-95924000D01*
X155518170Y-95792223D01*
X155440290Y-95671193D01*
X155321458Y-95589999D01*
X155180400Y-95561434D01*
X153480400Y-95561434D01*
X153348623Y-95586230D01*
X153227593Y-95664110D01*
X153146399Y-95782942D01*
X153117834Y-95924000D01*
X153117834Y-97624000D01*
X153142630Y-97755777D01*
X153220510Y-97876807D01*
X153339342Y-97958001D01*
X153480400Y-97986566D01*
X153643095Y-97986566D01*
X153319022Y-98310639D01*
X153316290Y-98306393D01*
X153197458Y-98225199D01*
X153056400Y-98196634D01*
X152556400Y-98196634D01*
X152424623Y-98221430D01*
X152303593Y-98299310D01*
X152222399Y-98418142D01*
X152193834Y-98559200D01*
X152193834Y-99459200D01*
X152218630Y-99590977D01*
X152296510Y-99712007D01*
X152415342Y-99793201D01*
X152556400Y-99821766D01*
X153056400Y-99821766D01*
X153188177Y-99796970D01*
X153309207Y-99719090D01*
X153390401Y-99600258D01*
X153418966Y-99459200D01*
X153418966Y-99452453D01*
X153464823Y-99443331D01*
X153617269Y-99341469D01*
X153860500Y-99098238D01*
X153860500Y-101828600D01*
X153890546Y-101979653D01*
X153896269Y-102008423D01*
X153998131Y-102160869D01*
X154491362Y-102654100D01*
X149994389Y-102654100D01*
X148015836Y-100675548D01*
X149186011Y-100675548D01*
X149317788Y-100650752D01*
X149438818Y-100572872D01*
X149520012Y-100454040D01*
X149548577Y-100312982D01*
X149548577Y-96750381D01*
X150584800Y-96750381D01*
X150584800Y-96797619D01*
X150676571Y-97258982D01*
X150836500Y-97498333D01*
X150836500Y-98278135D01*
X150803593Y-98299310D01*
X150722399Y-98418142D01*
X150693834Y-98559200D01*
X150693834Y-99459200D01*
X150718630Y-99590977D01*
X150796510Y-99712007D01*
X150915342Y-99793201D01*
X151056400Y-99821766D01*
X151556400Y-99821766D01*
X151688177Y-99796970D01*
X151809207Y-99719090D01*
X151890401Y-99600258D01*
X151918966Y-99459200D01*
X151918966Y-98559200D01*
X151894170Y-98427423D01*
X151816290Y-98306393D01*
X151776300Y-98279069D01*
X151776300Y-98000414D01*
X151790400Y-98003219D01*
X152251763Y-97911448D01*
X152642888Y-97650107D01*
X152904229Y-97258982D01*
X152996000Y-96797619D01*
X152996000Y-96750381D01*
X152904229Y-96289018D01*
X152642888Y-95897893D01*
X152251763Y-95636552D01*
X151790400Y-95544781D01*
X151329037Y-95636552D01*
X150937912Y-95897893D01*
X150676571Y-96289018D01*
X150584800Y-96750381D01*
X149548577Y-96750381D01*
X149548577Y-95377000D01*
X157427394Y-95377000D01*
X157857094Y-95806700D01*
G36*
X135723395Y-100135183D02*
X133159559Y-100135183D01*
X133159621Y-100064669D01*
X133053504Y-99807849D01*
X132857185Y-99611186D01*
X132600550Y-99504622D01*
X132322669Y-99504379D01*
X132065849Y-99610496D01*
X131869186Y-99806815D01*
X131762622Y-100063450D01*
X131762379Y-100341331D01*
X131868496Y-100598151D01*
X131892403Y-100622100D01*
X131766639Y-100622100D01*
X128841609Y-97697070D01*
X131909430Y-97697070D01*
X131909430Y-98337630D01*
X132006103Y-98571019D01*
X132184732Y-98749647D01*
X132418121Y-98846320D01*
X133348680Y-98846320D01*
X133507430Y-98687570D01*
X133507430Y-97538320D01*
X133761430Y-97538320D01*
X133761430Y-98687570D01*
X133920180Y-98846320D01*
X134850739Y-98846320D01*
X135084128Y-98749647D01*
X135262757Y-98571019D01*
X135359430Y-98337630D01*
X135359430Y-97697070D01*
X135200680Y-97538320D01*
X133761430Y-97538320D01*
X133507430Y-97538320D01*
X132068180Y-97538320D01*
X131909430Y-97697070D01*
X128841609Y-97697070D01*
X127629549Y-96485010D01*
X131909430Y-96485010D01*
X131909430Y-97125570D01*
X132068180Y-97284320D01*
X133507430Y-97284320D01*
X133507430Y-96135070D01*
X133761430Y-96135070D01*
X133761430Y-97284320D01*
X135200680Y-97284320D01*
X135359430Y-97125570D01*
X135359430Y-96485010D01*
X135262757Y-96251621D01*
X135084128Y-96072993D01*
X134850739Y-95976320D01*
X133920180Y-95976320D01*
X133761430Y-96135070D01*
X133507430Y-96135070D01*
X133348680Y-95976320D01*
X132418121Y-95976320D01*
X132184732Y-96072993D01*
X132006103Y-96251621D01*
X131909430Y-96485010D01*
X127629549Y-96485010D01*
X127103680Y-95959142D01*
X126951234Y-95857280D01*
X126771411Y-95821511D01*
X119382807Y-95821511D01*
X119202984Y-95857280D01*
X119050538Y-95959142D01*
X115618731Y-99390949D01*
X115516869Y-99543395D01*
X115481100Y-99723218D01*
X115481100Y-108873290D01*
X115512384Y-109030563D01*
X115516869Y-109053113D01*
X115618731Y-109205559D01*
X116474894Y-110061723D01*
X116474894Y-110966250D01*
X116499690Y-111098027D01*
X116577570Y-111219057D01*
X116696402Y-111300251D01*
X116837460Y-111328816D01*
X120037860Y-111328816D01*
X120169637Y-111304020D01*
X120290667Y-111226140D01*
X120371861Y-111107308D01*
X120400426Y-110966250D01*
X120400426Y-110832900D01*
X121369762Y-110832900D01*
X123630361Y-113093500D01*
X122467906Y-113093500D01*
X122249795Y-112875390D01*
X122257814Y-112867385D01*
X122364378Y-112610750D01*
X122364621Y-112332869D01*
X122258504Y-112076049D01*
X122062185Y-111879386D01*
X121805550Y-111772822D01*
X121527669Y-111772579D01*
X121270849Y-111878696D01*
X121074186Y-112075015D01*
X120967622Y-112331650D01*
X120967379Y-112609531D01*
X121073496Y-112866351D01*
X121204307Y-112997391D01*
X121225950Y-113106200D01*
X121231869Y-113135956D01*
X121333731Y-113288402D01*
X121940997Y-113895669D01*
X122084047Y-113991252D01*
X122093444Y-113997531D01*
X122273267Y-114033300D01*
X122850390Y-114033300D01*
X122746184Y-114052908D01*
X122625154Y-114130788D01*
X122543960Y-114249620D01*
X122515395Y-114390678D01*
X122515395Y-116959846D01*
X122512504Y-116952849D01*
X122316185Y-116756186D01*
X122059550Y-116649622D01*
X121781669Y-116649379D01*
X121524849Y-116755496D01*
X121402030Y-116878100D01*
X121033239Y-116878100D01*
X120789869Y-116634731D01*
X120637423Y-116532869D01*
X120578224Y-116521094D01*
X120566770Y-116460223D01*
X120488890Y-116339193D01*
X120370058Y-116257999D01*
X120229000Y-116229434D01*
X119029000Y-116229434D01*
X118897223Y-116254230D01*
X118880790Y-116264804D01*
X118867327Y-116232301D01*
X118688698Y-116053673D01*
X118455309Y-115957000D01*
X118014750Y-115957000D01*
X117856000Y-116115750D01*
X117856000Y-116840000D01*
X117876000Y-116840000D01*
X117876000Y-117094000D01*
X117856000Y-117094000D01*
X117856000Y-117818250D01*
X117861000Y-117823250D01*
X117861000Y-118364000D01*
X117881000Y-118364000D01*
X117881000Y-118618000D01*
X117861000Y-118618000D01*
X117861000Y-118638000D01*
X117607000Y-118638000D01*
X117607000Y-118618000D01*
X116657750Y-118618000D01*
X116499000Y-118776750D01*
X116499000Y-118992310D01*
X116595673Y-119225699D01*
X116622974Y-119253000D01*
X113723413Y-119253000D01*
X113638002Y-119153354D01*
X113890531Y-118901266D01*
X114274163Y-117977379D01*
X114274795Y-117252750D01*
X116494000Y-117252750D01*
X116494000Y-117468310D01*
X116590673Y-117701699D01*
X116620474Y-117731500D01*
X116595673Y-117756301D01*
X116499000Y-117989690D01*
X116499000Y-118205250D01*
X116657750Y-118364000D01*
X117607000Y-118364000D01*
X117607000Y-117639750D01*
X117602000Y-117634750D01*
X117602000Y-117094000D01*
X116652750Y-117094000D01*
X116494000Y-117252750D01*
X114274795Y-117252750D01*
X114275036Y-116977010D01*
X114063763Y-116465690D01*
X116494000Y-116465690D01*
X116494000Y-116681250D01*
X116652750Y-116840000D01*
X117602000Y-116840000D01*
X117602000Y-116115750D01*
X117443250Y-115957000D01*
X117002691Y-115957000D01*
X116769302Y-116053673D01*
X116590673Y-116232301D01*
X116494000Y-116465690D01*
X114063763Y-116465690D01*
X113893017Y-116052454D01*
X113186266Y-115344469D01*
X112262379Y-114960837D01*
X111262010Y-114959964D01*
X110362309Y-115331713D01*
X109982000Y-114888019D01*
X109982000Y-114275597D01*
X114917982Y-114275597D01*
X115049759Y-114250801D01*
X115170789Y-114172921D01*
X115251983Y-114054089D01*
X115280548Y-113913031D01*
X115280548Y-112213009D01*
X115255752Y-112081232D01*
X115177872Y-111960202D01*
X115059040Y-111879008D01*
X114917982Y-111850443D01*
X109982000Y-111850443D01*
X109982000Y-102875569D01*
X114917982Y-102875569D01*
X115049759Y-102850773D01*
X115170789Y-102772893D01*
X115251983Y-102654061D01*
X115280548Y-102513003D01*
X115280548Y-100812981D01*
X115255752Y-100681204D01*
X115177872Y-100560174D01*
X115059040Y-100478980D01*
X114917982Y-100450415D01*
X109982000Y-100450415D01*
X109982000Y-99112606D01*
X110071633Y-99022973D01*
X110333734Y-99285531D01*
X111257621Y-99669163D01*
X112257990Y-99670036D01*
X113182546Y-99288017D01*
X113890531Y-98581266D01*
X114274163Y-97657379D01*
X114275036Y-96657010D01*
X113893017Y-95732454D01*
X113627816Y-95466790D01*
X113717606Y-95377000D01*
X135723395Y-95377000D01*
X135723395Y-100135183D01*
X135723395Y-100135183D01*
G37*
X135723395Y-100135183D02*
X133159559Y-100135183D01*
X133159621Y-100064669D01*
X133053504Y-99807849D01*
X132857185Y-99611186D01*
X132600550Y-99504622D01*
X132322669Y-99504379D01*
X132065849Y-99610496D01*
X131869186Y-99806815D01*
X131762622Y-100063450D01*
X131762379Y-100341331D01*
X131868496Y-100598151D01*
X131892403Y-100622100D01*
X131766639Y-100622100D01*
X128841609Y-97697070D01*
X131909430Y-97697070D01*
X131909430Y-98337630D01*
X132006103Y-98571019D01*
X132184732Y-98749647D01*
X132418121Y-98846320D01*
X133348680Y-98846320D01*
X133507430Y-98687570D01*
X133507430Y-97538320D01*
X133761430Y-97538320D01*
X133761430Y-98687570D01*
X133920180Y-98846320D01*
X134850739Y-98846320D01*
X135084128Y-98749647D01*
X135262757Y-98571019D01*
X135359430Y-98337630D01*
X135359430Y-97697070D01*
X135200680Y-97538320D01*
X133761430Y-97538320D01*
X133507430Y-97538320D01*
X132068180Y-97538320D01*
X131909430Y-97697070D01*
X128841609Y-97697070D01*
X127629549Y-96485010D01*
X131909430Y-96485010D01*
X131909430Y-97125570D01*
X132068180Y-97284320D01*
X133507430Y-97284320D01*
X133507430Y-96135070D01*
X133761430Y-96135070D01*
X133761430Y-97284320D01*
X135200680Y-97284320D01*
X135359430Y-97125570D01*
X135359430Y-96485010D01*
X135262757Y-96251621D01*
X135084128Y-96072993D01*
X134850739Y-95976320D01*
X133920180Y-95976320D01*
X133761430Y-96135070D01*
X133507430Y-96135070D01*
X133348680Y-95976320D01*
X132418121Y-95976320D01*
X132184732Y-96072993D01*
X132006103Y-96251621D01*
X131909430Y-96485010D01*
X127629549Y-96485010D01*
X127103680Y-95959142D01*
X126951234Y-95857280D01*
X126771411Y-95821511D01*
X119382807Y-95821511D01*
X119202984Y-95857280D01*
X119050538Y-95959142D01*
X115618731Y-99390949D01*
X115516869Y-99543395D01*
X115481100Y-99723218D01*
X115481100Y-108873290D01*
X115512384Y-109030563D01*
X115516869Y-109053113D01*
X115618731Y-109205559D01*
X116474894Y-110061723D01*
X116474894Y-110966250D01*
X116499690Y-111098027D01*
X116577570Y-111219057D01*
X116696402Y-111300251D01*
X116837460Y-111328816D01*
X120037860Y-111328816D01*
X120169637Y-111304020D01*
X120290667Y-111226140D01*
X120371861Y-111107308D01*
X120400426Y-110966250D01*
X120400426Y-110832900D01*
X121369762Y-110832900D01*
X123630361Y-113093500D01*
X122467906Y-113093500D01*
X122249795Y-112875390D01*
X122257814Y-112867385D01*
X122364378Y-112610750D01*
X122364621Y-112332869D01*
X122258504Y-112076049D01*
X122062185Y-111879386D01*
X121805550Y-111772822D01*
X121527669Y-111772579D01*
X121270849Y-111878696D01*
X121074186Y-112075015D01*
X120967622Y-112331650D01*
X120967379Y-112609531D01*
X121073496Y-112866351D01*
X121204307Y-112997391D01*
X121225950Y-113106200D01*
X121231869Y-113135956D01*
X121333731Y-113288402D01*
X121940997Y-113895669D01*
X122084047Y-113991252D01*
X122093444Y-113997531D01*
X122273267Y-114033300D01*
X122850390Y-114033300D01*
X122746184Y-114052908D01*
X122625154Y-114130788D01*
X122543960Y-114249620D01*
X122515395Y-114390678D01*
X122515395Y-116959846D01*
X122512504Y-116952849D01*
X122316185Y-116756186D01*
X122059550Y-116649622D01*
X121781669Y-116649379D01*
X121524849Y-116755496D01*
X121402030Y-116878100D01*
X121033239Y-116878100D01*
X120789869Y-116634731D01*
X120637423Y-116532869D01*
X120578224Y-116521094D01*
X120566770Y-116460223D01*
X120488890Y-116339193D01*
X120370058Y-116257999D01*
X120229000Y-116229434D01*
X119029000Y-116229434D01*
X118897223Y-116254230D01*
X118880790Y-116264804D01*
X118867327Y-116232301D01*
X118688698Y-116053673D01*
X118455309Y-115957000D01*
X118014750Y-115957000D01*
X117856000Y-116115750D01*
X117856000Y-116840000D01*
X117876000Y-116840000D01*
X117876000Y-117094000D01*
X117856000Y-117094000D01*
X117856000Y-117818250D01*
X117861000Y-117823250D01*
X117861000Y-118364000D01*
X117881000Y-118364000D01*
X117881000Y-118618000D01*
X117861000Y-118618000D01*
X117861000Y-118638000D01*
X117607000Y-118638000D01*
X117607000Y-118618000D01*
X116657750Y-118618000D01*
X116499000Y-118776750D01*
X116499000Y-118992310D01*
X116595673Y-119225699D01*
X116622974Y-119253000D01*
X113723413Y-119253000D01*
X113638002Y-119153354D01*
X113890531Y-118901266D01*
X114274163Y-117977379D01*
X114274795Y-117252750D01*
X116494000Y-117252750D01*
X116494000Y-117468310D01*
X116590673Y-117701699D01*
X116620474Y-117731500D01*
X116595673Y-117756301D01*
X116499000Y-117989690D01*
X116499000Y-118205250D01*
X116657750Y-118364000D01*
X117607000Y-118364000D01*
X117607000Y-117639750D01*
X117602000Y-117634750D01*
X117602000Y-117094000D01*
X116652750Y-117094000D01*
X116494000Y-117252750D01*
X114274795Y-117252750D01*
X114275036Y-116977010D01*
X114063763Y-116465690D01*
X116494000Y-116465690D01*
X116494000Y-116681250D01*
X116652750Y-116840000D01*
X117602000Y-116840000D01*
X117602000Y-116115750D01*
X117443250Y-115957000D01*
X117002691Y-115957000D01*
X116769302Y-116053673D01*
X116590673Y-116232301D01*
X116494000Y-116465690D01*
X114063763Y-116465690D01*
X113893017Y-116052454D01*
X113186266Y-115344469D01*
X112262379Y-114960837D01*
X111262010Y-114959964D01*
X110362309Y-115331713D01*
X109982000Y-114888019D01*
X109982000Y-114275597D01*
X114917982Y-114275597D01*
X115049759Y-114250801D01*
X115170789Y-114172921D01*
X115251983Y-114054089D01*
X115280548Y-113913031D01*
X115280548Y-112213009D01*
X115255752Y-112081232D01*
X115177872Y-111960202D01*
X115059040Y-111879008D01*
X114917982Y-111850443D01*
X109982000Y-111850443D01*
X109982000Y-102875569D01*
X114917982Y-102875569D01*
X115049759Y-102850773D01*
X115170789Y-102772893D01*
X115251983Y-102654061D01*
X115280548Y-102513003D01*
X115280548Y-100812981D01*
X115255752Y-100681204D01*
X115177872Y-100560174D01*
X115059040Y-100478980D01*
X114917982Y-100450415D01*
X109982000Y-100450415D01*
X109982000Y-99112606D01*
X110071633Y-99022973D01*
X110333734Y-99285531D01*
X111257621Y-99669163D01*
X112257990Y-99670036D01*
X113182546Y-99288017D01*
X113890531Y-98581266D01*
X114274163Y-97657379D01*
X114275036Y-96657010D01*
X113893017Y-95732454D01*
X113627816Y-95466790D01*
X113717606Y-95377000D01*
X135723395Y-95377000D01*
X135723395Y-100135183D01*
G36*
X147957100Y-115521644D02*
X147957100Y-115531460D01*
X148930100Y-115531460D01*
X148930100Y-115511460D01*
X149184100Y-115511460D01*
X149184100Y-115531460D01*
X149204100Y-115531460D01*
X149204100Y-115785460D01*
X149184100Y-115785460D01*
X149184100Y-115805460D01*
X148930100Y-115805460D01*
X148930100Y-115785460D01*
X147957100Y-115785460D01*
X147957100Y-115795276D01*
X147949561Y-115805460D01*
X147769666Y-115805460D01*
X147769666Y-115511460D01*
X147949561Y-115511460D01*
X147957100Y-115521644D01*
X147957100Y-115521644D01*
G37*
X147957100Y-115521644D02*
X147957100Y-115531460D01*
X148930100Y-115531460D01*
X148930100Y-115511460D01*
X149184100Y-115511460D01*
X149184100Y-115531460D01*
X149204100Y-115531460D01*
X149204100Y-115785460D01*
X149184100Y-115785460D01*
X149184100Y-115805460D01*
X148930100Y-115805460D01*
X148930100Y-115785460D01*
X147957100Y-115785460D01*
X147957100Y-115795276D01*
X147949561Y-115805460D01*
X147769666Y-115805460D01*
X147769666Y-115511460D01*
X147949561Y-115511460D01*
X147957100Y-115521644D01*
G36*
X143800263Y-113766364D02*
X143996582Y-113963027D01*
X144224990Y-114057870D01*
X144224874Y-114190832D01*
X144330991Y-114447652D01*
X144483643Y-114600571D01*
X144358231Y-114557231D01*
X144184100Y-114705897D01*
X144184100Y-115531460D01*
X144204100Y-115531460D01*
X144204100Y-115785460D01*
X144184100Y-115785460D01*
X144184100Y-115805460D01*
X143930100Y-115805460D01*
X143930100Y-115785460D01*
X143910100Y-115785460D01*
X143910100Y-115531460D01*
X143930100Y-115531460D01*
X143930100Y-114705897D01*
X143755969Y-114557231D01*
X143726220Y-114567512D01*
X143736232Y-114552528D01*
X143739778Y-114534702D01*
X143772001Y-114372705D01*
X143772001Y-113697965D01*
X143800263Y-113766364D01*
X143800263Y-113766364D01*
G37*
X143800263Y-113766364D02*
X143996582Y-113963027D01*
X144224990Y-114057870D01*
X144224874Y-114190832D01*
X144330991Y-114447652D01*
X144483643Y-114600571D01*
X144358231Y-114557231D01*
X144184100Y-114705897D01*
X144184100Y-115531460D01*
X144204100Y-115531460D01*
X144204100Y-115785460D01*
X144184100Y-115785460D01*
X144184100Y-115805460D01*
X143930100Y-115805460D01*
X143930100Y-115785460D01*
X143910100Y-115785460D01*
X143910100Y-115531460D01*
X143930100Y-115531460D01*
X143930100Y-114705897D01*
X143755969Y-114557231D01*
X143726220Y-114567512D01*
X143736232Y-114552528D01*
X143739778Y-114534702D01*
X143772001Y-114372705D01*
X143772001Y-113697965D01*
X143800263Y-113766364D01*
G36*
X129476622Y-106455850D02*
X129476439Y-106664826D01*
X129445869Y-106710577D01*
X129436747Y-106756434D01*
X129280000Y-106756434D01*
X129148223Y-106781230D01*
X129030453Y-106857012D01*
X128925058Y-106784999D01*
X128784000Y-106756434D01*
X127584000Y-106756434D01*
X127452223Y-106781230D01*
X127331193Y-106859110D01*
X127249999Y-106977942D01*
X127221434Y-107119000D01*
X127221434Y-107991896D01*
X126946566Y-107717028D01*
X126946566Y-107119000D01*
X126921770Y-106987223D01*
X126843890Y-106866193D01*
X126725058Y-106784999D01*
X126584000Y-106756434D01*
X125384000Y-106756434D01*
X125252223Y-106781230D01*
X125131193Y-106859110D01*
X125049999Y-106977942D01*
X125021434Y-107119000D01*
X125021434Y-108019000D01*
X125046230Y-108150777D01*
X125124110Y-108271807D01*
X125242942Y-108353001D01*
X125384000Y-108381566D01*
X126282028Y-108381566D01*
X126625002Y-108724540D01*
X126554992Y-108794550D01*
X126554992Y-110744000D01*
X126574992Y-110744000D01*
X126574992Y-110998000D01*
X126554992Y-110998000D01*
X126554992Y-112947450D01*
X126713742Y-113106200D01*
X127157551Y-113106200D01*
X127390940Y-113009527D01*
X127569569Y-112830899D01*
X127603037Y-112750100D01*
X127683680Y-112805201D01*
X127824738Y-112833766D01*
X128563695Y-112833766D01*
X128049932Y-113347530D01*
X127877669Y-113347379D01*
X127620849Y-113453496D01*
X127424186Y-113649815D01*
X127317622Y-113906450D01*
X127317559Y-113978421D01*
X127185582Y-113846444D01*
X127033136Y-113744582D01*
X127026304Y-113743223D01*
X126853313Y-113708813D01*
X125124814Y-113708813D01*
X125210751Y-113673304D01*
X125407414Y-113476985D01*
X125513978Y-113220350D01*
X125514145Y-113029865D01*
X125698433Y-113106200D01*
X126142242Y-113106200D01*
X126300992Y-112947450D01*
X126300992Y-110998000D01*
X125348492Y-110998000D01*
X125189742Y-111156750D01*
X125189742Y-112479833D01*
X124955150Y-112382422D01*
X124677269Y-112382179D01*
X124420449Y-112488296D01*
X124387313Y-112521374D01*
X121896669Y-110030731D01*
X121744223Y-109928869D01*
X121743760Y-109928777D01*
X121564400Y-109893100D01*
X120400426Y-109893100D01*
X120400426Y-109759750D01*
X120375630Y-109627973D01*
X120297750Y-109506943D01*
X120178918Y-109425749D01*
X120037860Y-109397184D01*
X117139433Y-109397184D01*
X117071069Y-109328820D01*
X120037860Y-109328820D01*
X120169637Y-109304024D01*
X120290667Y-109226144D01*
X120346458Y-109144490D01*
X125189742Y-109144490D01*
X125189742Y-110585250D01*
X125348492Y-110744000D01*
X126300992Y-110744000D01*
X126300992Y-108794550D01*
X126142242Y-108635800D01*
X125698433Y-108635800D01*
X125465044Y-108732473D01*
X125286415Y-108911101D01*
X125189742Y-109144490D01*
X120346458Y-109144490D01*
X120371861Y-109107312D01*
X120400426Y-108966254D01*
X120400426Y-108774145D01*
X120518465Y-108695273D01*
X122902039Y-106311700D01*
X129536478Y-106311700D01*
X129476622Y-106455850D01*
X129476622Y-106455850D01*
G37*
X129476622Y-106455850D02*
X129476439Y-106664826D01*
X129445869Y-106710577D01*
X129436747Y-106756434D01*
X129280000Y-106756434D01*
X129148223Y-106781230D01*
X129030453Y-106857012D01*
X128925058Y-106784999D01*
X128784000Y-106756434D01*
X127584000Y-106756434D01*
X127452223Y-106781230D01*
X127331193Y-106859110D01*
X127249999Y-106977942D01*
X127221434Y-107119000D01*
X127221434Y-107991896D01*
X126946566Y-107717028D01*
X126946566Y-107119000D01*
X126921770Y-106987223D01*
X126843890Y-106866193D01*
X126725058Y-106784999D01*
X126584000Y-106756434D01*
X125384000Y-106756434D01*
X125252223Y-106781230D01*
X125131193Y-106859110D01*
X125049999Y-106977942D01*
X125021434Y-107119000D01*
X125021434Y-108019000D01*
X125046230Y-108150777D01*
X125124110Y-108271807D01*
X125242942Y-108353001D01*
X125384000Y-108381566D01*
X126282028Y-108381566D01*
X126625002Y-108724540D01*
X126554992Y-108794550D01*
X126554992Y-110744000D01*
X126574992Y-110744000D01*
X126574992Y-110998000D01*
X126554992Y-110998000D01*
X126554992Y-112947450D01*
X126713742Y-113106200D01*
X127157551Y-113106200D01*
X127390940Y-113009527D01*
X127569569Y-112830899D01*
X127603037Y-112750100D01*
X127683680Y-112805201D01*
X127824738Y-112833766D01*
X128563695Y-112833766D01*
X128049932Y-113347530D01*
X127877669Y-113347379D01*
X127620849Y-113453496D01*
X127424186Y-113649815D01*
X127317622Y-113906450D01*
X127317559Y-113978421D01*
X127185582Y-113846444D01*
X127033136Y-113744582D01*
X127026304Y-113743223D01*
X126853313Y-113708813D01*
X125124814Y-113708813D01*
X125210751Y-113673304D01*
X125407414Y-113476985D01*
X125513978Y-113220350D01*
X125514145Y-113029865D01*
X125698433Y-113106200D01*
X126142242Y-113106200D01*
X126300992Y-112947450D01*
X126300992Y-110998000D01*
X125348492Y-110998000D01*
X125189742Y-111156750D01*
X125189742Y-112479833D01*
X124955150Y-112382422D01*
X124677269Y-112382179D01*
X124420449Y-112488296D01*
X124387313Y-112521374D01*
X121896669Y-110030731D01*
X121744223Y-109928869D01*
X121743760Y-109928777D01*
X121564400Y-109893100D01*
X120400426Y-109893100D01*
X120400426Y-109759750D01*
X120375630Y-109627973D01*
X120297750Y-109506943D01*
X120178918Y-109425749D01*
X120037860Y-109397184D01*
X117139433Y-109397184D01*
X117071069Y-109328820D01*
X120037860Y-109328820D01*
X120169637Y-109304024D01*
X120290667Y-109226144D01*
X120346458Y-109144490D01*
X125189742Y-109144490D01*
X125189742Y-110585250D01*
X125348492Y-110744000D01*
X126300992Y-110744000D01*
X126300992Y-108794550D01*
X126142242Y-108635800D01*
X125698433Y-108635800D01*
X125465044Y-108732473D01*
X125286415Y-108911101D01*
X125189742Y-109144490D01*
X120346458Y-109144490D01*
X120371861Y-109107312D01*
X120400426Y-108966254D01*
X120400426Y-108774145D01*
X120518465Y-108695273D01*
X122902039Y-106311700D01*
X129536478Y-106311700D01*
X129476622Y-106455850D01*
G36*
X145868228Y-101650962D02*
X145762980Y-101756210D01*
X145762980Y-103705660D01*
X146715480Y-103705660D01*
X146874230Y-103546910D01*
X146874230Y-102656964D01*
X147982193Y-103764928D01*
X147982193Y-105781094D01*
X147860279Y-105902795D01*
X147753715Y-106159430D01*
X147753472Y-106437311D01*
X147859589Y-106694131D01*
X148055908Y-106890794D01*
X148312543Y-106997358D01*
X148590424Y-106997601D01*
X148847244Y-106891484D01*
X149043907Y-106695165D01*
X149150471Y-106438530D01*
X149150714Y-106160649D01*
X149044597Y-105903829D01*
X148921993Y-105781010D01*
X148921993Y-105340947D01*
X149003463Y-105538117D01*
X149199782Y-105734780D01*
X149456417Y-105841344D01*
X149734298Y-105841587D01*
X149991118Y-105735470D01*
X150187781Y-105539151D01*
X150294345Y-105282516D01*
X150294588Y-105004635D01*
X150191425Y-104754964D01*
X150225722Y-104789261D01*
X150378169Y-104891123D01*
X150557992Y-104926892D01*
X151379574Y-104926892D01*
X151379574Y-105060242D01*
X151404370Y-105192019D01*
X151482250Y-105313049D01*
X151601082Y-105394243D01*
X151742140Y-105422808D01*
X154942540Y-105422808D01*
X155074317Y-105398012D01*
X155195347Y-105320132D01*
X155276541Y-105201300D01*
X155305106Y-105060242D01*
X155305106Y-104153645D01*
X155828999Y-104677538D01*
X155828999Y-105895904D01*
X155790750Y-105880022D01*
X155512869Y-105879779D01*
X155305106Y-105965626D01*
X155305106Y-105853738D01*
X155280310Y-105721961D01*
X155202430Y-105600931D01*
X155083598Y-105519737D01*
X154942540Y-105491172D01*
X151742140Y-105491172D01*
X151610363Y-105515968D01*
X151489333Y-105593848D01*
X151408139Y-105712680D01*
X151379574Y-105853738D01*
X151379574Y-106758265D01*
X150543731Y-107594109D01*
X150441869Y-107746555D01*
X150406100Y-107926378D01*
X150406100Y-113651606D01*
X150325504Y-113456551D01*
X150129185Y-113259888D01*
X149872550Y-113153324D01*
X149699008Y-113153172D01*
X149584780Y-113038944D01*
X149432334Y-112937082D01*
X149252511Y-112901313D01*
X145845000Y-112901313D01*
X145845000Y-112680750D01*
X145686250Y-112522000D01*
X144737000Y-112522000D01*
X144737000Y-112542000D01*
X144483000Y-112542000D01*
X144483000Y-112522000D01*
X144463000Y-112522000D01*
X144463000Y-112268000D01*
X144483000Y-112268000D01*
X144483000Y-112248000D01*
X144737000Y-112248000D01*
X144737000Y-112268000D01*
X145686250Y-112268000D01*
X145845000Y-112109250D01*
X145845000Y-111818690D01*
X145748327Y-111585301D01*
X145745116Y-111582090D01*
X145776862Y-111603781D01*
X145917920Y-111632346D01*
X146715480Y-111632346D01*
X146847257Y-111607550D01*
X146864511Y-111596448D01*
X146878193Y-111629479D01*
X147056822Y-111808107D01*
X147290211Y-111904780D01*
X147529550Y-111904780D01*
X147688300Y-111746030D01*
X147688300Y-110998000D01*
X147942300Y-110998000D01*
X147942300Y-111746030D01*
X148101050Y-111904780D01*
X148340389Y-111904780D01*
X148573778Y-111808107D01*
X148752407Y-111629479D01*
X148849080Y-111396090D01*
X148849080Y-111156750D01*
X148690330Y-110998000D01*
X147942300Y-110998000D01*
X147688300Y-110998000D01*
X147668300Y-110998000D01*
X147668300Y-110744000D01*
X147688300Y-110744000D01*
X147688300Y-109474000D01*
X147668300Y-109474000D01*
X147668300Y-109220000D01*
X147688300Y-109220000D01*
X147688300Y-109200000D01*
X147942300Y-109200000D01*
X147942300Y-109220000D01*
X147962300Y-109220000D01*
X147962300Y-109474000D01*
X147942300Y-109474000D01*
X147942300Y-110744000D01*
X148690330Y-110744000D01*
X148849080Y-110585250D01*
X148849080Y-110345910D01*
X148752407Y-110112521D01*
X148748886Y-110109000D01*
X148752407Y-110105479D01*
X148849080Y-109872090D01*
X148849080Y-109632750D01*
X148752565Y-109536235D01*
X148861268Y-109536330D01*
X149118088Y-109430213D01*
X149314751Y-109233894D01*
X149421315Y-108977259D01*
X149421558Y-108699378D01*
X149386448Y-108614407D01*
X149405777Y-108610770D01*
X149526807Y-108532890D01*
X149608001Y-108414058D01*
X149636566Y-108273000D01*
X149636566Y-107373000D01*
X149611770Y-107241223D01*
X149533890Y-107120193D01*
X149415058Y-107038999D01*
X149274000Y-107010434D01*
X148074000Y-107010434D01*
X147942223Y-107035230D01*
X147878366Y-107076321D01*
X146687071Y-105885027D01*
X146685883Y-105884233D01*
X146777557Y-105792559D01*
X146874230Y-105559170D01*
X146874230Y-104118410D01*
X146715480Y-103959660D01*
X145762980Y-103959660D01*
X145762980Y-103979660D01*
X145508980Y-103979660D01*
X145508980Y-103959660D01*
X145488980Y-103959660D01*
X145488980Y-103705660D01*
X145508980Y-103705660D01*
X145508980Y-101756210D01*
X145350230Y-101597460D01*
X144906421Y-101597460D01*
X144673032Y-101694133D01*
X144494403Y-101872761D01*
X144460935Y-101953560D01*
X144380292Y-101898459D01*
X144239234Y-101869894D01*
X143032734Y-101869894D01*
X142900957Y-101894690D01*
X142779927Y-101972570D01*
X142698733Y-102091402D01*
X142670168Y-102232460D01*
X142670168Y-105432860D01*
X142694964Y-105564637D01*
X142772844Y-105685667D01*
X142891676Y-105766861D01*
X143032734Y-105795426D01*
X143937262Y-105795426D01*
X144691400Y-106549565D01*
X144769457Y-106601721D01*
X144843847Y-106651427D01*
X145023670Y-106687196D01*
X146160164Y-106687196D01*
X146483402Y-107010434D01*
X145874000Y-107010434D01*
X145742223Y-107035230D01*
X145621193Y-107113110D01*
X145540925Y-107230586D01*
X145469890Y-107120193D01*
X145351058Y-107038999D01*
X145210000Y-107010434D01*
X144010000Y-107010434D01*
X143878223Y-107035230D01*
X143757193Y-107113110D01*
X143675999Y-107231942D01*
X143647434Y-107373000D01*
X143647434Y-108273000D01*
X143672230Y-108404777D01*
X143750110Y-108525807D01*
X143797989Y-108558521D01*
X143794223Y-108559230D01*
X143673193Y-108637110D01*
X143591999Y-108755942D01*
X143563434Y-108897000D01*
X143563434Y-109797000D01*
X143588230Y-109928777D01*
X143666110Y-110049807D01*
X143763380Y-110116268D01*
X143693693Y-110161110D01*
X143612499Y-110279942D01*
X143583934Y-110421000D01*
X143583934Y-111321000D01*
X143585699Y-111330378D01*
X143536152Y-111280832D01*
X143383706Y-111178970D01*
X143309066Y-111164123D01*
X143309066Y-110421000D01*
X143284270Y-110289223D01*
X143206390Y-110168193D01*
X143109120Y-110101732D01*
X143178807Y-110056890D01*
X143260001Y-109938058D01*
X143288566Y-109797000D01*
X143288566Y-108897000D01*
X143279477Y-108848698D01*
X143369698Y-108811327D01*
X143548327Y-108632699D01*
X143645000Y-108399310D01*
X143645000Y-108108750D01*
X143486250Y-107950000D01*
X142537000Y-107950000D01*
X142537000Y-107970000D01*
X142283000Y-107970000D01*
X142283000Y-107950000D01*
X141333750Y-107950000D01*
X141175000Y-108108750D01*
X141175000Y-108140457D01*
X141085669Y-108140379D01*
X141058899Y-108151440D01*
X141058899Y-107246690D01*
X141175000Y-107246690D01*
X141175000Y-107537250D01*
X141333750Y-107696000D01*
X142283000Y-107696000D01*
X142283000Y-106896750D01*
X142537000Y-106896750D01*
X142537000Y-107696000D01*
X143486250Y-107696000D01*
X143645000Y-107537250D01*
X143645000Y-107246690D01*
X143548327Y-107013301D01*
X143369698Y-106834673D01*
X143136309Y-106738000D01*
X142695750Y-106738000D01*
X142537000Y-106896750D01*
X142283000Y-106896750D01*
X142124250Y-106738000D01*
X141683691Y-106738000D01*
X141450302Y-106834673D01*
X141271673Y-107013301D01*
X141175000Y-107246690D01*
X141058899Y-107246690D01*
X141058899Y-107070444D01*
X141023130Y-106890621D01*
X141009678Y-106870489D01*
X140921269Y-106738175D01*
X140543054Y-106359960D01*
X140651738Y-106359960D01*
X140860722Y-106318391D01*
X141037889Y-106200011D01*
X141442474Y-105795426D01*
X142239238Y-105795426D01*
X142371015Y-105770630D01*
X142492045Y-105692750D01*
X142573239Y-105573918D01*
X142601804Y-105432860D01*
X142601804Y-102232460D01*
X142577008Y-102100683D01*
X142542246Y-102046661D01*
X142596880Y-101915089D01*
X142597123Y-101637208D01*
X142566006Y-101561900D01*
X145779166Y-101561900D01*
X145868228Y-101650962D01*
X145868228Y-101650962D01*
G37*
X145868228Y-101650962D02*
X145762980Y-101756210D01*
X145762980Y-103705660D01*
X146715480Y-103705660D01*
X146874230Y-103546910D01*
X146874230Y-102656964D01*
X147982193Y-103764928D01*
X147982193Y-105781094D01*
X147860279Y-105902795D01*
X147753715Y-106159430D01*
X147753472Y-106437311D01*
X147859589Y-106694131D01*
X148055908Y-106890794D01*
X148312543Y-106997358D01*
X148590424Y-106997601D01*
X148847244Y-106891484D01*
X149043907Y-106695165D01*
X149150471Y-106438530D01*
X149150714Y-106160649D01*
X149044597Y-105903829D01*
X148921993Y-105781010D01*
X148921993Y-105340947D01*
X149003463Y-105538117D01*
X149199782Y-105734780D01*
X149456417Y-105841344D01*
X149734298Y-105841587D01*
X149991118Y-105735470D01*
X150187781Y-105539151D01*
X150294345Y-105282516D01*
X150294588Y-105004635D01*
X150191425Y-104754964D01*
X150225722Y-104789261D01*
X150378169Y-104891123D01*
X150557992Y-104926892D01*
X151379574Y-104926892D01*
X151379574Y-105060242D01*
X151404370Y-105192019D01*
X151482250Y-105313049D01*
X151601082Y-105394243D01*
X151742140Y-105422808D01*
X154942540Y-105422808D01*
X155074317Y-105398012D01*
X155195347Y-105320132D01*
X155276541Y-105201300D01*
X155305106Y-105060242D01*
X155305106Y-104153645D01*
X155828999Y-104677538D01*
X155828999Y-105895904D01*
X155790750Y-105880022D01*
X155512869Y-105879779D01*
X155305106Y-105965626D01*
X155305106Y-105853738D01*
X155280310Y-105721961D01*
X155202430Y-105600931D01*
X155083598Y-105519737D01*
X154942540Y-105491172D01*
X151742140Y-105491172D01*
X151610363Y-105515968D01*
X151489333Y-105593848D01*
X151408139Y-105712680D01*
X151379574Y-105853738D01*
X151379574Y-106758265D01*
X150543731Y-107594109D01*
X150441869Y-107746555D01*
X150406100Y-107926378D01*
X150406100Y-113651606D01*
X150325504Y-113456551D01*
X150129185Y-113259888D01*
X149872550Y-113153324D01*
X149699008Y-113153172D01*
X149584780Y-113038944D01*
X149432334Y-112937082D01*
X149252511Y-112901313D01*
X145845000Y-112901313D01*
X145845000Y-112680750D01*
X145686250Y-112522000D01*
X144737000Y-112522000D01*
X144737000Y-112542000D01*
X144483000Y-112542000D01*
X144483000Y-112522000D01*
X144463000Y-112522000D01*
X144463000Y-112268000D01*
X144483000Y-112268000D01*
X144483000Y-112248000D01*
X144737000Y-112248000D01*
X144737000Y-112268000D01*
X145686250Y-112268000D01*
X145845000Y-112109250D01*
X145845000Y-111818690D01*
X145748327Y-111585301D01*
X145745116Y-111582090D01*
X145776862Y-111603781D01*
X145917920Y-111632346D01*
X146715480Y-111632346D01*
X146847257Y-111607550D01*
X146864511Y-111596448D01*
X146878193Y-111629479D01*
X147056822Y-111808107D01*
X147290211Y-111904780D01*
X147529550Y-111904780D01*
X147688300Y-111746030D01*
X147688300Y-110998000D01*
X147942300Y-110998000D01*
X147942300Y-111746030D01*
X148101050Y-111904780D01*
X148340389Y-111904780D01*
X148573778Y-111808107D01*
X148752407Y-111629479D01*
X148849080Y-111396090D01*
X148849080Y-111156750D01*
X148690330Y-110998000D01*
X147942300Y-110998000D01*
X147688300Y-110998000D01*
X147668300Y-110998000D01*
X147668300Y-110744000D01*
X147688300Y-110744000D01*
X147688300Y-109474000D01*
X147668300Y-109474000D01*
X147668300Y-109220000D01*
X147688300Y-109220000D01*
X147688300Y-109200000D01*
X147942300Y-109200000D01*
X147942300Y-109220000D01*
X147962300Y-109220000D01*
X147962300Y-109474000D01*
X147942300Y-109474000D01*
X147942300Y-110744000D01*
X148690330Y-110744000D01*
X148849080Y-110585250D01*
X148849080Y-110345910D01*
X148752407Y-110112521D01*
X148748886Y-110109000D01*
X148752407Y-110105479D01*
X148849080Y-109872090D01*
X148849080Y-109632750D01*
X148752565Y-109536235D01*
X148861268Y-109536330D01*
X149118088Y-109430213D01*
X149314751Y-109233894D01*
X149421315Y-108977259D01*
X149421558Y-108699378D01*
X149386448Y-108614407D01*
X149405777Y-108610770D01*
X149526807Y-108532890D01*
X149608001Y-108414058D01*
X149636566Y-108273000D01*
X149636566Y-107373000D01*
X149611770Y-107241223D01*
X149533890Y-107120193D01*
X149415058Y-107038999D01*
X149274000Y-107010434D01*
X148074000Y-107010434D01*
X147942223Y-107035230D01*
X147878366Y-107076321D01*
X146687071Y-105885027D01*
X146685883Y-105884233D01*
X146777557Y-105792559D01*
X146874230Y-105559170D01*
X146874230Y-104118410D01*
X146715480Y-103959660D01*
X145762980Y-103959660D01*
X145762980Y-103979660D01*
X145508980Y-103979660D01*
X145508980Y-103959660D01*
X145488980Y-103959660D01*
X145488980Y-103705660D01*
X145508980Y-103705660D01*
X145508980Y-101756210D01*
X145350230Y-101597460D01*
X144906421Y-101597460D01*
X144673032Y-101694133D01*
X144494403Y-101872761D01*
X144460935Y-101953560D01*
X144380292Y-101898459D01*
X144239234Y-101869894D01*
X143032734Y-101869894D01*
X142900957Y-101894690D01*
X142779927Y-101972570D01*
X142698733Y-102091402D01*
X142670168Y-102232460D01*
X142670168Y-105432860D01*
X142694964Y-105564637D01*
X142772844Y-105685667D01*
X142891676Y-105766861D01*
X143032734Y-105795426D01*
X143937262Y-105795426D01*
X144691400Y-106549565D01*
X144769457Y-106601721D01*
X144843847Y-106651427D01*
X145023670Y-106687196D01*
X146160164Y-106687196D01*
X146483402Y-107010434D01*
X145874000Y-107010434D01*
X145742223Y-107035230D01*
X145621193Y-107113110D01*
X145540925Y-107230586D01*
X145469890Y-107120193D01*
X145351058Y-107038999D01*
X145210000Y-107010434D01*
X144010000Y-107010434D01*
X143878223Y-107035230D01*
X143757193Y-107113110D01*
X143675999Y-107231942D01*
X143647434Y-107373000D01*
X143647434Y-108273000D01*
X143672230Y-108404777D01*
X143750110Y-108525807D01*
X143797989Y-108558521D01*
X143794223Y-108559230D01*
X143673193Y-108637110D01*
X143591999Y-108755942D01*
X143563434Y-108897000D01*
X143563434Y-109797000D01*
X143588230Y-109928777D01*
X143666110Y-110049807D01*
X143763380Y-110116268D01*
X143693693Y-110161110D01*
X143612499Y-110279942D01*
X143583934Y-110421000D01*
X143583934Y-111321000D01*
X143585699Y-111330378D01*
X143536152Y-111280832D01*
X143383706Y-111178970D01*
X143309066Y-111164123D01*
X143309066Y-110421000D01*
X143284270Y-110289223D01*
X143206390Y-110168193D01*
X143109120Y-110101732D01*
X143178807Y-110056890D01*
X143260001Y-109938058D01*
X143288566Y-109797000D01*
X143288566Y-108897000D01*
X143279477Y-108848698D01*
X143369698Y-108811327D01*
X143548327Y-108632699D01*
X143645000Y-108399310D01*
X143645000Y-108108750D01*
X143486250Y-107950000D01*
X142537000Y-107950000D01*
X142537000Y-107970000D01*
X142283000Y-107970000D01*
X142283000Y-107950000D01*
X141333750Y-107950000D01*
X141175000Y-108108750D01*
X141175000Y-108140457D01*
X141085669Y-108140379D01*
X141058899Y-108151440D01*
X141058899Y-107246690D01*
X141175000Y-107246690D01*
X141175000Y-107537250D01*
X141333750Y-107696000D01*
X142283000Y-107696000D01*
X142283000Y-106896750D01*
X142537000Y-106896750D01*
X142537000Y-107696000D01*
X143486250Y-107696000D01*
X143645000Y-107537250D01*
X143645000Y-107246690D01*
X143548327Y-107013301D01*
X143369698Y-106834673D01*
X143136309Y-106738000D01*
X142695750Y-106738000D01*
X142537000Y-106896750D01*
X142283000Y-106896750D01*
X142124250Y-106738000D01*
X141683691Y-106738000D01*
X141450302Y-106834673D01*
X141271673Y-107013301D01*
X141175000Y-107246690D01*
X141058899Y-107246690D01*
X141058899Y-107070444D01*
X141023130Y-106890621D01*
X141009678Y-106870489D01*
X140921269Y-106738175D01*
X140543054Y-106359960D01*
X140651738Y-106359960D01*
X140860722Y-106318391D01*
X141037889Y-106200011D01*
X141442474Y-105795426D01*
X142239238Y-105795426D01*
X142371015Y-105770630D01*
X142492045Y-105692750D01*
X142573239Y-105573918D01*
X142601804Y-105432860D01*
X142601804Y-102232460D01*
X142577008Y-102100683D01*
X142542246Y-102046661D01*
X142596880Y-101915089D01*
X142597123Y-101637208D01*
X142566006Y-101561900D01*
X145779166Y-101561900D01*
X145868228Y-101650962D01*
G36*
X139151383Y-108160814D02*
X139408018Y-108267378D01*
X139685899Y-108267621D01*
X139712688Y-108256552D01*
X139712688Y-108425220D01*
X139596318Y-108541590D01*
X139494456Y-108694036D01*
X139458687Y-108873859D01*
X139458687Y-111469355D01*
X139479464Y-111573807D01*
X139494456Y-111649178D01*
X139500618Y-111658400D01*
X139477750Y-111658400D01*
X139319000Y-111817150D01*
X139319000Y-113030000D01*
X139339000Y-113030000D01*
X139339000Y-113284000D01*
X139319000Y-113284000D01*
X139319000Y-113304000D01*
X139065000Y-113304000D01*
X139065000Y-113284000D01*
X137699750Y-113284000D01*
X137638953Y-113344797D01*
X137347487Y-113053331D01*
X137195041Y-112951469D01*
X137174836Y-112947450D01*
X137015218Y-112915700D01*
X134027239Y-112915700D01*
X133793231Y-112681693D01*
X133793231Y-112167090D01*
X137541000Y-112167090D01*
X137541000Y-112871250D01*
X137699750Y-113030000D01*
X139065000Y-113030000D01*
X139065000Y-111817150D01*
X138906250Y-111658400D01*
X138049691Y-111658400D01*
X137816302Y-111755073D01*
X137637673Y-111933701D01*
X137541000Y-112167090D01*
X133793231Y-112167090D01*
X133793231Y-111778107D01*
X137532439Y-108038900D01*
X139029682Y-108038900D01*
X139151383Y-108160814D01*
X139151383Y-108160814D01*
G37*
X139151383Y-108160814D02*
X139408018Y-108267378D01*
X139685899Y-108267621D01*
X139712688Y-108256552D01*
X139712688Y-108425220D01*
X139596318Y-108541590D01*
X139494456Y-108694036D01*
X139458687Y-108873859D01*
X139458687Y-111469355D01*
X139479464Y-111573807D01*
X139494456Y-111649178D01*
X139500618Y-111658400D01*
X139477750Y-111658400D01*
X139319000Y-111817150D01*
X139319000Y-113030000D01*
X139339000Y-113030000D01*
X139339000Y-113284000D01*
X139319000Y-113284000D01*
X139319000Y-113304000D01*
X139065000Y-113304000D01*
X139065000Y-113284000D01*
X137699750Y-113284000D01*
X137638953Y-113344797D01*
X137347487Y-113053331D01*
X137195041Y-112951469D01*
X137174836Y-112947450D01*
X137015218Y-112915700D01*
X134027239Y-112915700D01*
X133793231Y-112681693D01*
X133793231Y-112167090D01*
X137541000Y-112167090D01*
X137541000Y-112871250D01*
X137699750Y-113030000D01*
X139065000Y-113030000D01*
X139065000Y-111817150D01*
X138906250Y-111658400D01*
X138049691Y-111658400D01*
X137816302Y-111755073D01*
X137637673Y-111933701D01*
X137541000Y-112167090D01*
X133793231Y-112167090D01*
X133793231Y-111778107D01*
X137532439Y-108038900D01*
X139029682Y-108038900D01*
X139151383Y-108160814D01*
G36*
X138670176Y-102703581D02*
X138541558Y-102703469D01*
X138284738Y-102809586D01*
X138088075Y-103005905D01*
X137981511Y-103262540D01*
X137981423Y-103362760D01*
X137213340Y-103362760D01*
X137033517Y-103398529D01*
X136881071Y-103500390D01*
X135202129Y-105179333D01*
X135100267Y-105331779D01*
X135064498Y-105511602D01*
X135064498Y-108401793D01*
X133393796Y-110072496D01*
X133393796Y-109270800D01*
X133369000Y-109139023D01*
X133291120Y-109017993D01*
X133172288Y-108936799D01*
X133031230Y-108908234D01*
X132056621Y-108908234D01*
X132056709Y-108807790D01*
X131950592Y-108550970D01*
X131923959Y-108524291D01*
X131953000Y-108495250D01*
X131953000Y-107696000D01*
X132207000Y-107696000D01*
X132207000Y-108495250D01*
X132365750Y-108654000D01*
X132806309Y-108654000D01*
X133039698Y-108557327D01*
X133218327Y-108378699D01*
X133315000Y-108145310D01*
X133315000Y-107854750D01*
X133156250Y-107696000D01*
X132207000Y-107696000D01*
X131953000Y-107696000D01*
X131003750Y-107696000D01*
X130845000Y-107854750D01*
X130845000Y-108145310D01*
X130940543Y-108375972D01*
X130766274Y-108549936D01*
X130659710Y-108806571D01*
X130659621Y-108908234D01*
X129883904Y-108908234D01*
X130212270Y-108579869D01*
X130314131Y-108427423D01*
X130323253Y-108381566D01*
X130480000Y-108381566D01*
X130611777Y-108356770D01*
X130732807Y-108278890D01*
X130814001Y-108160058D01*
X130842566Y-108019000D01*
X130842566Y-107119000D01*
X130817770Y-106987223D01*
X130787900Y-106940804D01*
X130873378Y-106734950D01*
X130873621Y-106457069D01*
X130813555Y-106311700D01*
X131631362Y-106311700D01*
X131952998Y-106633336D01*
X131952998Y-106642748D01*
X131794250Y-106484000D01*
X131353691Y-106484000D01*
X131120302Y-106580673D01*
X130941673Y-106759301D01*
X130845000Y-106992690D01*
X130845000Y-107283250D01*
X131003750Y-107442000D01*
X131953000Y-107442000D01*
X131953000Y-107422000D01*
X132207000Y-107422000D01*
X132207000Y-107442000D01*
X133156250Y-107442000D01*
X133315000Y-107283250D01*
X133315000Y-106992690D01*
X133219439Y-106761985D01*
X133263030Y-106732858D01*
X133809270Y-106186619D01*
X133911131Y-106034173D01*
X133946900Y-105854350D01*
X133946900Y-105038886D01*
X134068814Y-104917185D01*
X134175378Y-104660550D01*
X134175621Y-104382669D01*
X134084394Y-104161886D01*
X134724430Y-104161886D01*
X134856207Y-104137090D01*
X134977237Y-104059210D01*
X135058431Y-103940378D01*
X135086996Y-103799320D01*
X135086996Y-103442573D01*
X135132853Y-103433451D01*
X135285299Y-103331589D01*
X136206629Y-102410259D01*
X138670176Y-102410259D01*
X138670176Y-102703581D01*
X138670176Y-102703581D01*
G37*
X138670176Y-102703581D02*
X138541558Y-102703469D01*
X138284738Y-102809586D01*
X138088075Y-103005905D01*
X137981511Y-103262540D01*
X137981423Y-103362760D01*
X137213340Y-103362760D01*
X137033517Y-103398529D01*
X136881071Y-103500390D01*
X135202129Y-105179333D01*
X135100267Y-105331779D01*
X135064498Y-105511602D01*
X135064498Y-108401793D01*
X133393796Y-110072496D01*
X133393796Y-109270800D01*
X133369000Y-109139023D01*
X133291120Y-109017993D01*
X133172288Y-108936799D01*
X133031230Y-108908234D01*
X132056621Y-108908234D01*
X132056709Y-108807790D01*
X131950592Y-108550970D01*
X131923959Y-108524291D01*
X131953000Y-108495250D01*
X131953000Y-107696000D01*
X132207000Y-107696000D01*
X132207000Y-108495250D01*
X132365750Y-108654000D01*
X132806309Y-108654000D01*
X133039698Y-108557327D01*
X133218327Y-108378699D01*
X133315000Y-108145310D01*
X133315000Y-107854750D01*
X133156250Y-107696000D01*
X132207000Y-107696000D01*
X131953000Y-107696000D01*
X131003750Y-107696000D01*
X130845000Y-107854750D01*
X130845000Y-108145310D01*
X130940543Y-108375972D01*
X130766274Y-108549936D01*
X130659710Y-108806571D01*
X130659621Y-108908234D01*
X129883904Y-108908234D01*
X130212270Y-108579869D01*
X130314131Y-108427423D01*
X130323253Y-108381566D01*
X130480000Y-108381566D01*
X130611777Y-108356770D01*
X130732807Y-108278890D01*
X130814001Y-108160058D01*
X130842566Y-108019000D01*
X130842566Y-107119000D01*
X130817770Y-106987223D01*
X130787900Y-106940804D01*
X130873378Y-106734950D01*
X130873621Y-106457069D01*
X130813555Y-106311700D01*
X131631362Y-106311700D01*
X131952998Y-106633336D01*
X131952998Y-106642748D01*
X131794250Y-106484000D01*
X131353691Y-106484000D01*
X131120302Y-106580673D01*
X130941673Y-106759301D01*
X130845000Y-106992690D01*
X130845000Y-107283250D01*
X131003750Y-107442000D01*
X131953000Y-107442000D01*
X131953000Y-107422000D01*
X132207000Y-107422000D01*
X132207000Y-107442000D01*
X133156250Y-107442000D01*
X133315000Y-107283250D01*
X133315000Y-106992690D01*
X133219439Y-106761985D01*
X133263030Y-106732858D01*
X133809270Y-106186619D01*
X133911131Y-106034173D01*
X133946900Y-105854350D01*
X133946900Y-105038886D01*
X134068814Y-104917185D01*
X134175378Y-104660550D01*
X134175621Y-104382669D01*
X134084394Y-104161886D01*
X134724430Y-104161886D01*
X134856207Y-104137090D01*
X134977237Y-104059210D01*
X135058431Y-103940378D01*
X135086996Y-103799320D01*
X135086996Y-103442573D01*
X135132853Y-103433451D01*
X135285299Y-103331589D01*
X136206629Y-102410259D01*
X138670176Y-102410259D01*
X138670176Y-102703581D01*
G36*
X118785000Y-97656310D02*
X118825028Y-97752946D01*
X118708673Y-97869301D01*
X118612000Y-98102690D01*
X118612000Y-98393250D01*
X118770750Y-98552000D01*
X119720000Y-98552000D01*
X119720000Y-98532000D01*
X119974000Y-98532000D01*
X119974000Y-98552000D01*
X120923250Y-98552000D01*
X121082000Y-98393250D01*
X121082000Y-98102690D01*
X121041972Y-98006054D01*
X121158327Y-97889699D01*
X121171171Y-97858691D01*
X121178942Y-97864001D01*
X121314787Y-97891510D01*
X121194193Y-97969110D01*
X121112999Y-98087942D01*
X121084434Y-98229000D01*
X121084434Y-99129000D01*
X121109230Y-99260777D01*
X121187110Y-99381807D01*
X121305942Y-99463001D01*
X121447000Y-99491566D01*
X122647000Y-99491566D01*
X122778777Y-99466770D01*
X122899807Y-99388890D01*
X122981001Y-99270058D01*
X123005536Y-99148900D01*
X127800872Y-99148900D01*
X128186267Y-99534295D01*
X128001849Y-99610496D01*
X127805186Y-99806815D01*
X127698622Y-100063450D01*
X127698379Y-100341331D01*
X127804496Y-100598151D01*
X128000815Y-100794814D01*
X128181100Y-100869675D01*
X128181100Y-101318269D01*
X128211373Y-101470460D01*
X128216869Y-101498092D01*
X128318731Y-101650538D01*
X129934104Y-103265911D01*
X129926085Y-103273916D01*
X129819521Y-103530551D01*
X129819278Y-103808432D01*
X129925395Y-104065252D01*
X130121714Y-104261915D01*
X130378349Y-104368479D01*
X130656230Y-104368722D01*
X130913050Y-104262605D01*
X131109713Y-104066286D01*
X131216277Y-103809651D01*
X131216520Y-103531770D01*
X131110403Y-103274950D01*
X130979592Y-103143910D01*
X130952030Y-103005345D01*
X130944904Y-102994680D01*
X130850169Y-102852899D01*
X129120900Y-101123631D01*
X129120900Y-100468928D01*
X131983560Y-103331589D01*
X132057256Y-103380831D01*
X132136007Y-103433451D01*
X132181864Y-103442573D01*
X132181864Y-103799320D01*
X132206660Y-103931097D01*
X132284540Y-104052127D01*
X132403372Y-104133321D01*
X132544430Y-104161886D01*
X132869793Y-104161886D01*
X132778622Y-104381450D01*
X132778400Y-104635378D01*
X132551269Y-104635179D01*
X132294449Y-104741296D01*
X132171630Y-104863900D01*
X128936675Y-104863900D01*
X128968378Y-104787550D01*
X128968621Y-104509669D01*
X128862504Y-104252849D01*
X128816100Y-104206364D01*
X128816100Y-104163067D01*
X128800943Y-104086869D01*
X128774531Y-103954083D01*
X128656151Y-103776916D01*
X127487764Y-102608529D01*
X127310597Y-102490149D01*
X127101613Y-102448580D01*
X125882136Y-102448580D01*
X125882136Y-102194680D01*
X125857340Y-102062903D01*
X125779460Y-101941873D01*
X125660628Y-101860679D01*
X125519570Y-101832114D01*
X123339570Y-101832114D01*
X123207793Y-101856910D01*
X123086763Y-101934790D01*
X123005569Y-102053622D01*
X122977004Y-102194680D01*
X122977004Y-103794680D01*
X123001800Y-103926457D01*
X123079680Y-104047487D01*
X123198512Y-104128681D01*
X123339570Y-104157246D01*
X125519570Y-104157246D01*
X125651347Y-104132450D01*
X125772377Y-104054570D01*
X125853571Y-103935738D01*
X125882136Y-103794680D01*
X125882136Y-103540780D01*
X126875411Y-103540780D01*
X127651269Y-104316638D01*
X127571622Y-104508450D01*
X127571379Y-104786331D01*
X127603430Y-104863900D01*
X122224800Y-104863900D01*
X122044977Y-104899669D01*
X121892531Y-105001530D01*
X121000954Y-105893108D01*
X120400426Y-105893108D01*
X120400426Y-105759758D01*
X120375630Y-105627981D01*
X120317554Y-105537728D01*
X120397559Y-105504589D01*
X120576187Y-105325960D01*
X120672860Y-105092571D01*
X120672860Y-104648762D01*
X120514110Y-104490012D01*
X118564660Y-104490012D01*
X118564660Y-104510012D01*
X118310660Y-104510012D01*
X118310660Y-104490012D01*
X118290660Y-104490012D01*
X118290660Y-104236012D01*
X118310660Y-104236012D01*
X118310660Y-103283512D01*
X118564660Y-103283512D01*
X118564660Y-104236012D01*
X120514110Y-104236012D01*
X120672860Y-104077262D01*
X120672860Y-103633453D01*
X120576187Y-103400064D01*
X120397559Y-103221435D01*
X120164170Y-103124762D01*
X118723410Y-103124762D01*
X118564660Y-103283512D01*
X118310660Y-103283512D01*
X118151910Y-103124762D01*
X116711150Y-103124762D01*
X116477761Y-103221435D01*
X116420900Y-103278296D01*
X116420900Y-99917856D01*
X117374006Y-98964750D01*
X118612000Y-98964750D01*
X118612000Y-99255310D01*
X118708673Y-99488699D01*
X118887302Y-99667327D01*
X119120691Y-99764000D01*
X119561250Y-99764000D01*
X119720000Y-99605250D01*
X119720000Y-98806000D01*
X119974000Y-98806000D01*
X119974000Y-99605250D01*
X120132750Y-99764000D01*
X120573309Y-99764000D01*
X120806698Y-99667327D01*
X120985327Y-99488699D01*
X121082000Y-99255310D01*
X121082000Y-98964750D01*
X120923250Y-98806000D01*
X119974000Y-98806000D01*
X119720000Y-98806000D01*
X118770750Y-98806000D01*
X118612000Y-98964750D01*
X117374006Y-98964750D01*
X118785000Y-97553756D01*
X118785000Y-97656310D01*
X118785000Y-97656310D01*
G37*
X118785000Y-97656310D02*
X118825028Y-97752946D01*
X118708673Y-97869301D01*
X118612000Y-98102690D01*
X118612000Y-98393250D01*
X118770750Y-98552000D01*
X119720000Y-98552000D01*
X119720000Y-98532000D01*
X119974000Y-98532000D01*
X119974000Y-98552000D01*
X120923250Y-98552000D01*
X121082000Y-98393250D01*
X121082000Y-98102690D01*
X121041972Y-98006054D01*
X121158327Y-97889699D01*
X121171171Y-97858691D01*
X121178942Y-97864001D01*
X121314787Y-97891510D01*
X121194193Y-97969110D01*
X121112999Y-98087942D01*
X121084434Y-98229000D01*
X121084434Y-99129000D01*
X121109230Y-99260777D01*
X121187110Y-99381807D01*
X121305942Y-99463001D01*
X121447000Y-99491566D01*
X122647000Y-99491566D01*
X122778777Y-99466770D01*
X122899807Y-99388890D01*
X122981001Y-99270058D01*
X123005536Y-99148900D01*
X127800872Y-99148900D01*
X128186267Y-99534295D01*
X128001849Y-99610496D01*
X127805186Y-99806815D01*
X127698622Y-100063450D01*
X127698379Y-100341331D01*
X127804496Y-100598151D01*
X128000815Y-100794814D01*
X128181100Y-100869675D01*
X128181100Y-101318269D01*
X128211373Y-101470460D01*
X128216869Y-101498092D01*
X128318731Y-101650538D01*
X129934104Y-103265911D01*
X129926085Y-103273916D01*
X129819521Y-103530551D01*
X129819278Y-103808432D01*
X129925395Y-104065252D01*
X130121714Y-104261915D01*
X130378349Y-104368479D01*
X130656230Y-104368722D01*
X130913050Y-104262605D01*
X131109713Y-104066286D01*
X131216277Y-103809651D01*
X131216520Y-103531770D01*
X131110403Y-103274950D01*
X130979592Y-103143910D01*
X130952030Y-103005345D01*
X130944904Y-102994680D01*
X130850169Y-102852899D01*
X129120900Y-101123631D01*
X129120900Y-100468928D01*
X131983560Y-103331589D01*
X132057256Y-103380831D01*
X132136007Y-103433451D01*
X132181864Y-103442573D01*
X132181864Y-103799320D01*
X132206660Y-103931097D01*
X132284540Y-104052127D01*
X132403372Y-104133321D01*
X132544430Y-104161886D01*
X132869793Y-104161886D01*
X132778622Y-104381450D01*
X132778400Y-104635378D01*
X132551269Y-104635179D01*
X132294449Y-104741296D01*
X132171630Y-104863900D01*
X128936675Y-104863900D01*
X128968378Y-104787550D01*
X128968621Y-104509669D01*
X128862504Y-104252849D01*
X128816100Y-104206364D01*
X128816100Y-104163067D01*
X128800943Y-104086869D01*
X128774531Y-103954083D01*
X128656151Y-103776916D01*
X127487764Y-102608529D01*
X127310597Y-102490149D01*
X127101613Y-102448580D01*
X125882136Y-102448580D01*
X125882136Y-102194680D01*
X125857340Y-102062903D01*
X125779460Y-101941873D01*
X125660628Y-101860679D01*
X125519570Y-101832114D01*
X123339570Y-101832114D01*
X123207793Y-101856910D01*
X123086763Y-101934790D01*
X123005569Y-102053622D01*
X122977004Y-102194680D01*
X122977004Y-103794680D01*
X123001800Y-103926457D01*
X123079680Y-104047487D01*
X123198512Y-104128681D01*
X123339570Y-104157246D01*
X125519570Y-104157246D01*
X125651347Y-104132450D01*
X125772377Y-104054570D01*
X125853571Y-103935738D01*
X125882136Y-103794680D01*
X125882136Y-103540780D01*
X126875411Y-103540780D01*
X127651269Y-104316638D01*
X127571622Y-104508450D01*
X127571379Y-104786331D01*
X127603430Y-104863900D01*
X122224800Y-104863900D01*
X122044977Y-104899669D01*
X121892531Y-105001530D01*
X121000954Y-105893108D01*
X120400426Y-105893108D01*
X120400426Y-105759758D01*
X120375630Y-105627981D01*
X120317554Y-105537728D01*
X120397559Y-105504589D01*
X120576187Y-105325960D01*
X120672860Y-105092571D01*
X120672860Y-104648762D01*
X120514110Y-104490012D01*
X118564660Y-104490012D01*
X118564660Y-104510012D01*
X118310660Y-104510012D01*
X118310660Y-104490012D01*
X118290660Y-104490012D01*
X118290660Y-104236012D01*
X118310660Y-104236012D01*
X118310660Y-103283512D01*
X118564660Y-103283512D01*
X118564660Y-104236012D01*
X120514110Y-104236012D01*
X120672860Y-104077262D01*
X120672860Y-103633453D01*
X120576187Y-103400064D01*
X120397559Y-103221435D01*
X120164170Y-103124762D01*
X118723410Y-103124762D01*
X118564660Y-103283512D01*
X118310660Y-103283512D01*
X118151910Y-103124762D01*
X116711150Y-103124762D01*
X116477761Y-103221435D01*
X116420900Y-103278296D01*
X116420900Y-99917856D01*
X117374006Y-98964750D01*
X118612000Y-98964750D01*
X118612000Y-99255310D01*
X118708673Y-99488699D01*
X118887302Y-99667327D01*
X119120691Y-99764000D01*
X119561250Y-99764000D01*
X119720000Y-99605250D01*
X119720000Y-98806000D01*
X119974000Y-98806000D01*
X119974000Y-99605250D01*
X120132750Y-99764000D01*
X120573309Y-99764000D01*
X120806698Y-99667327D01*
X120985327Y-99488699D01*
X121082000Y-99255310D01*
X121082000Y-98964750D01*
X120923250Y-98806000D01*
X119974000Y-98806000D01*
X119720000Y-98806000D01*
X118770750Y-98806000D01*
X118612000Y-98964750D01*
X117374006Y-98964750D01*
X118785000Y-97553756D01*
X118785000Y-97656310D01*
G36*
X120147000Y-97028000D02*
X120167000Y-97028000D01*
X120167000Y-97282000D01*
X120147000Y-97282000D01*
X120147000Y-97302000D01*
X119893000Y-97302000D01*
X119893000Y-97282000D01*
X119873000Y-97282000D01*
X119873000Y-97028000D01*
X119893000Y-97028000D01*
X119893000Y-97008000D01*
X120147000Y-97008000D01*
X120147000Y-97028000D01*
X120147000Y-97028000D01*
G37*
X120147000Y-97028000D02*
X120167000Y-97028000D01*
X120167000Y-97282000D01*
X120147000Y-97282000D01*
X120147000Y-97302000D01*
X119893000Y-97302000D01*
X119893000Y-97282000D01*
X119873000Y-97282000D01*
X119873000Y-97028000D01*
X119893000Y-97028000D01*
X119893000Y-97008000D01*
X120147000Y-97008000D01*
X120147000Y-97028000D01*
M02*
