G04 #@! TF.FileFunction,Soldermask,Bot*
%FSLAX46Y46*%
G04 Gerber Fmt 4.6, Leading zero omitted, Abs format (unit mm)*
G04 Created by KiCad (PCBNEW 4.0.6) date Fri Jul  7 23:07:04 2017*
%MOMM*%
%LPD*%
G01*
G04 APERTURE LIST*
%ADD10C,0.090000*%
%ADD11C,4.318000*%
%ADD12R,0.750000X1.200000*%
%ADD13R,1.200000X0.750000*%
%ADD14R,1.220000X0.910000*%
%ADD15R,0.910000X1.220000*%
%ADD16R,2.032000X1.727200*%
%ADD17O,2.032000X1.727200*%
%ADD18O,1.250000X0.950000*%
%ADD19O,1.422400X1.550000*%
%ADD20R,1.200000X0.900000*%
%ADD21R,1.060000X0.650000*%
%ADD22R,0.250000X1.300000*%
%ADD23R,1.300000X0.250000*%
%ADD24R,1.143000X0.508000*%
%ADD25R,1.700000X1.700000*%
%ADD26O,1.700000X1.700000*%
%ADD27R,0.800000X1.900000*%
G04 APERTURE END LIST*
D10*
D11*
X111760000Y-117475000D03*
X111760000Y-97155000D03*
X160020000Y-97155000D03*
D12*
X118364000Y-112461000D03*
X118364000Y-114361000D03*
D13*
X122550000Y-110871000D03*
X120650000Y-110871000D03*
X122550000Y-109347000D03*
X120650000Y-109347000D03*
X122550000Y-107823000D03*
X120650000Y-107823000D03*
X126360000Y-109347000D03*
X124460000Y-109347000D03*
X126365000Y-110871000D03*
X124465000Y-110871000D03*
X136718000Y-101473000D03*
X138618000Y-101473000D03*
X150368000Y-100457000D03*
X148468000Y-100457000D03*
X150368000Y-101981000D03*
X148468000Y-101981000D03*
D12*
X145796000Y-114808000D03*
X145796000Y-116708000D03*
X147066000Y-114808000D03*
X147066000Y-116708000D03*
D13*
X144592000Y-101981000D03*
X146492000Y-101981000D03*
X144592000Y-100457000D03*
X146492000Y-100457000D03*
D14*
X129286000Y-113427000D03*
X129286000Y-116697000D03*
D15*
X146923000Y-96266000D03*
X143653000Y-96266000D03*
D16*
X139192000Y-113157000D03*
D17*
X139192000Y-115697000D03*
X139192000Y-118237000D03*
D18*
X144057100Y-115658460D03*
X149057100Y-115658460D03*
D19*
X143057100Y-118358460D03*
X150057100Y-118358460D03*
D20*
X120566000Y-116205000D03*
X122766000Y-116205000D03*
X155041600Y-98755200D03*
X152841600Y-98755200D03*
D21*
X120566000Y-114361000D03*
X120566000Y-113411000D03*
X120566000Y-112461000D03*
X122766000Y-112461000D03*
X122766000Y-114361000D03*
X124376000Y-107757000D03*
X124376000Y-106807000D03*
X124376000Y-105857000D03*
X126576000Y-105857000D03*
X126576000Y-107757000D03*
D22*
X146316000Y-103981000D03*
X146816000Y-103981000D03*
X147316000Y-103981000D03*
X147816000Y-103981000D03*
X148316000Y-103981000D03*
X148816000Y-103981000D03*
X149316000Y-103981000D03*
X149816000Y-103981000D03*
X150316000Y-103981000D03*
X150816000Y-103981000D03*
X151316000Y-103981000D03*
X151816000Y-103981000D03*
D23*
X153416000Y-105581000D03*
X153416000Y-106081000D03*
X153416000Y-106581000D03*
X153416000Y-107081000D03*
X153416000Y-107581000D03*
X153416000Y-108081000D03*
X153416000Y-108581000D03*
X153416000Y-109081000D03*
X153416000Y-109581000D03*
X153416000Y-110081000D03*
X153416000Y-110581000D03*
X153416000Y-111081000D03*
D22*
X151816000Y-112681000D03*
X151316000Y-112681000D03*
X150816000Y-112681000D03*
X150316000Y-112681000D03*
X149816000Y-112681000D03*
X149316000Y-112681000D03*
X148816000Y-112681000D03*
X148316000Y-112681000D03*
X147816000Y-112681000D03*
X147316000Y-112681000D03*
X146816000Y-112681000D03*
X146316000Y-112681000D03*
D23*
X144716000Y-111081000D03*
X144716000Y-110581000D03*
X144716000Y-110081000D03*
X144716000Y-109581000D03*
X144716000Y-109081000D03*
X144716000Y-108581000D03*
X144716000Y-108081000D03*
X144716000Y-107581000D03*
X144716000Y-107081000D03*
X144716000Y-106581000D03*
X144716000Y-106081000D03*
X144716000Y-105581000D03*
D24*
X134747000Y-103124000D03*
X134747000Y-104394000D03*
X134747000Y-105664000D03*
X134747000Y-106934000D03*
X141097000Y-106934000D03*
X141097000Y-105664000D03*
X141097000Y-104394000D03*
X141097000Y-103124000D03*
D11*
X160020000Y-117475000D03*
D13*
X140081000Y-98171000D03*
X141981000Y-98171000D03*
D12*
X131572000Y-113477000D03*
X131572000Y-115377000D03*
D25*
X154330400Y-96774000D03*
D26*
X151790400Y-96774000D03*
D27*
X126807000Y-116665000D03*
X124907000Y-116665000D03*
X125857000Y-113665000D03*
M02*
